<?xml version="1.0" encoding="UTF-8"?>
<svg width="752pt" height="752pt" version="1.1" viewBox="0 0 752 752" xmlns="http://www.w3.org/2000/svg">
 <g fill="#ffd65b">
  <path d="m163.98 416.46c-0.49219 0-0.98047-0.15234-1.3906-0.44922-0.73047-0.53125-1.0938-1.4297-0.94141-2.3203l4.5195-26.336-19.133-18.656c-0.64844-0.62891-0.88281-1.5742-0.59766-2.4297 0.28125-0.85547 1.0195-1.4805 1.9141-1.6094l26.441-3.8438 11.828-23.965c0.39844-0.80469 1.2227-1.3203 2.125-1.3203 0.89844 0 1.7227 0.51172 2.125 1.3203l11.824 23.957 26.445 3.8438c0.89062 0.12891 1.6328 0.75391 1.9141 1.6094s0.046874 1.8008-0.60156 2.4297l-19.137 18.656 4.5234 26.336c0.15234 0.89062-0.21484 1.7891-0.94141 2.3164-0.72266 0.53125-1.6953 0.60547-2.4961 0.17969l-23.656-12.438-23.656 12.438c-0.35156 0.19141-0.73047 0.28125-1.1094 0.28125z"/>
  <path d="m307.12 416.46c-0.37891 0-0.75781-0.089844-1.1016-0.27344l-23.656-12.438-23.652 12.438c-0.79688 0.42578-1.7617 0.35156-2.4961-0.17578-0.73047-0.53125-1.0938-1.4297-0.94141-2.3203l4.5117-26.336-19.133-18.656c-0.64844-0.62891-0.88281-1.5742-0.59766-2.4297 0.28125-0.85547 1.0195-1.4805 1.9141-1.6094l26.445-3.8438 11.824-23.957c0.80078-1.6211 3.4531-1.6133 4.2461 0l11.828 23.965 26.441 3.8438c0.89063 0.12891 1.6328 0.75391 1.9141 1.6094s0.046875 1.8008-0.59766 2.4297l-19.133 18.656 4.5195 26.336c0.15234 0.89062-0.21484 1.7891-0.94141 2.3203-0.41406 0.28906-0.90234 0.44141-1.3945 0.44141z"/>
  <path d="m400.75 416.46c-0.37891 0-0.75781-0.089844-1.0977-0.27344l-23.656-12.438-23.656 12.438c-0.78906 0.42578-1.7656 0.35156-2.4961-0.17578-0.73047-0.53125-1.0938-1.4297-0.94141-2.3203l4.5195-26.336-19.133-18.656c-0.64844-0.62891-0.88281-1.5742-0.59766-2.4297 0.28125-0.85547 1.0195-1.4805 1.9141-1.6094l26.441-3.8438 11.828-23.965c0.39844-0.80469 1.2227-1.3203 2.125-1.3203 0.89844 0 1.7227 0.51172 2.125 1.3203l11.824 23.957 26.445 3.8438c0.89062 0.12891 1.6328 0.75391 1.9102 1.6094 0.28516 0.85547 0.046875 1.8008-0.59766 2.4297l-19.137 18.656 4.5195 26.336c0.15234 0.89062-0.21484 1.7891-0.94141 2.3203-0.41797 0.30469-0.91016 0.45703-1.3984 0.45703zm-59.719-47.805 16.59 16.176c0.55859 0.54297 0.81641 1.3242 0.68359 2.0977l-3.918 22.828 20.508-10.777c0.69141-0.37109 1.5156-0.37109 2.207 0l20.508 10.777-3.918-22.828c-0.12891-0.77344 0.125-1.5547 0.68359-2.0977l16.59-16.176-22.926-3.3359c-0.77344-0.11328-1.4414-0.59766-1.7812-1.2969l-10.262-20.77-10.258 20.77c-0.34766 0.69531-1.0117 1.1836-1.7852 1.293z"/>
  <path d="m444.88 416.46c-0.49219 0-0.98047-0.15234-1.3906-0.44922-0.73047-0.53125-1.0938-1.4297-0.94141-2.3203l4.5195-26.336-19.137-18.656c-0.64453-0.62891-0.88281-1.5742-0.59766-2.4297 0.28125-0.85547 1.0195-1.4805 1.9102-1.6094l26.445-3.8438 11.824-23.957c0.79688-1.6211 3.4531-1.6133 4.2422 0l11.836 23.957 26.445 3.8438c0.89062 0.12891 1.6328 0.75391 1.9102 1.6094 0.28516 0.85547 0.046875 1.8008-0.59766 2.4297l-19.137 18.656 4.5195 26.336c0.15234 0.89063-0.21484 1.7891-0.94141 2.3164-0.73047 0.53125-1.6953 0.60547-2.4922 0.17969l-23.664-12.438-23.652 12.438c-0.34375 0.18359-0.72266 0.27344-1.1016 0.27344zm24.754-17.754c0.37891 0 0.75781 0.089843 1.0977 0.27344l20.516 10.777-3.918-22.828c-0.12891-0.77344 0.125-1.5547 0.68359-2.0977l16.59-16.176-22.926-3.3359c-0.77344-0.11328-1.4414-0.59766-1.7812-1.293l-10.262-20.777-10.254 20.77c-0.33984 0.69922-1.0078 1.1836-1.7812 1.2969l-22.926 3.3359 16.59 16.176c0.55469 0.54297 0.80859 1.3242 0.68359 2.0977l-3.918 22.828 20.508-10.777c0.33594-0.1875 0.71484-0.26953 1.0977-0.26953z"/>
  <path d="m588.02 416.46c-0.37891 0-0.75781-0.089844-1.0977-0.27344l-23.652-12.438-23.66 12.438c-0.79688 0.42578-1.7617 0.35156-2.4922-0.17969-0.73047-0.52734-1.0938-1.4258-0.94141-2.3164l4.5195-26.336-19.137-18.656c-0.64453-0.62891-0.88281-1.5742-0.59766-2.4297 0.28125-0.85547 1.0195-1.4805 1.9102-1.6094l26.445-3.8438 11.836-23.957c0.39844-0.80469 1.2227-1.3203 2.1211-1.3203 0.89844 0 1.7227 0.51172 2.1211 1.3203l11.824 23.957 26.445 3.8438c0.89062 0.12891 1.6328 0.75391 1.9102 1.6094 0.28516 0.85547 0.046875 1.8008-0.59766 2.4297l-19.137 18.656 4.5195 26.336c0.15234 0.89063-0.21484 1.7891-0.94141 2.3203-0.41797 0.29688-0.91016 0.44922-1.3984 0.44922zm-59.723-47.805 16.59 16.176c0.55469 0.54297 0.80859 1.3242 0.68359 2.0977l-3.918 22.828 20.516-10.777c0.6875-0.37109 1.5156-0.37109 2.2031 0l20.508 10.777-3.918-22.828c-0.12891-0.77344 0.125-1.5547 0.68359-2.0977l16.59-16.176-22.926-3.3359c-0.77344-0.11328-1.4414-0.59766-1.7812-1.2969l-10.254-20.77-10.262 20.777c-0.33984 0.69531-1.0078 1.1836-1.7812 1.293z"/>
 </g>
</svg>
