<?xml version="1.0" encoding="UTF-8"?>
<svg width="752pt" height="752pt" version="1.1" viewBox="0 0 752 752" xmlns="http://www.w3.org/2000/svg">
 <g fill="#ffd65b">
  <path d="m238.93 366.47c-0.42969-1.332-1.5742-2.3086-2.9609-2.5195l-23.641-3.4336-10.605-21.426c-0.68359-1.1914-1.9531-1.9258-3.3281-1.9258s-2.6445 0.73438-3.332 1.9258l-10.543 21.426-23.641 3.4336c-1.3945 0.19922-2.5547 1.1758-2.9883 2.5156-0.4375 1.3398-0.070313 2.8125 0.9375 3.793l17.109 16.672-4.0391 23.547h-0.003907c-0.23438 1.3906 0.33984 2.793 1.4805 3.6172 1.1367 0.83594 2.6484 0.94531 3.8945 0.28125l21.141-11.113 21.148 11.098v0.003906c1.2422 0.65234 2.7539 0.54297 3.8906-0.28125 1.1406-0.82812 1.7148-2.2305 1.4805-3.6211l-4.0391-23.547 17.109-16.672-0.003906 0.003906c1-0.98047 1.3633-2.4414 0.93359-3.7773z"/>
  <path d="m327.73 366.47c-0.42969-1.332-1.5742-2.3086-2.9609-2.5195l-23.641-3.4336-10.574-21.422v-0.003906c-0.6875-1.1914-1.957-1.9258-3.332-1.9258s-2.6445 0.73438-3.3281 1.9258l-10.574 21.422-23.641 3.4336-0.003906 0.003907c-1.3906 0.19922-2.5508 1.1758-2.9844 2.5156-0.4375 1.3398-0.074219 2.8125 0.9375 3.793l17.109 16.672-4.0391 23.547h-0.003906c-0.23438 1.3906 0.33984 2.793 1.4805 3.6172 1.1328 0.83594 2.6484 0.94531 3.8906 0.28125l21.141-11.113 21.148 11.098v0.003906c1.2461 0.65234 2.7539 0.54297 3.8945-0.28125 1.1406-0.82812 1.7148-2.2305 1.4805-3.6211l-4.0391-23.547 17.109-16.672-0.003906 0.003906c1-0.98047 1.3594-2.4414 0.93359-3.7773z"/>
  <path d="m416.52 366.47c-0.42969-1.332-1.5781-2.3086-2.9609-2.5195l-23.641-3.4336-10.574-21.422v-0.003906c-0.6875-1.1914-1.957-1.9258-3.332-1.9258s-2.6445 0.73438-3.3281 1.9258l-10.574 21.422-23.641 3.4336-0.003906 0.003907c-1.3945 0.19922-2.5508 1.1758-2.9844 2.5156-0.4375 1.3398-0.074219 2.8125 0.9375 3.793l17.109 16.672-4.0391 23.547h-0.003907c-0.23438 1.3906 0.33594 2.793 1.4805 3.6172 1.1328 0.83594 2.6484 0.94531 3.8906 0.28125l21.141-11.113 21.141 11.098v0.003906c1.25 0.65625 2.7617 0.54688 3.9023-0.28125s1.7109-2.2305 1.4727-3.6211l-4.0391-23.539 17.109-16.68-0.003907 0.003906c1.0039-0.98047 1.3672-2.4414 0.94141-3.7773z"/>
  <path d="m505.32 366.47c-0.42969-1.332-1.5781-2.3086-2.9609-2.5195l-23.641-3.4336-10.574-21.422-0.003906-0.003906c-0.68359-1.1914-1.9531-1.9258-3.3281-1.9258s-2.6445 0.73438-3.3281 1.9258l-10.574 21.422-23.641 3.4336-0.003906 0.003907c-1.3945 0.19922-2.5508 1.1758-2.9844 2.5156-0.4375 1.3398-0.074219 2.8125 0.9375 3.793l17.109 16.68-4.0391 23.539h-0.003906c-0.23828 1.3906 0.33203 2.793 1.4727 3.6211 1.1406 0.82812 2.6523 0.9375 3.8984 0.27734l21.141-11.113 21.141 11.098v0.003906c1.2461 0.65625 2.7617 0.54688 3.9023-0.28125s1.7109-2.2305 1.4727-3.6211l-4.0391-23.539 17.109-16.68-0.003906 0.003906c1.0039-0.98047 1.3672-2.4414 0.94141-3.7773z"/>
  <path d="m576.46 414.8c-0.60156 0-1.1953-0.14844-1.7266-0.42969l-21.141-11.113-21.141 11.098v0.003906c-1.2461 0.65625-2.7578 0.54688-3.8984-0.28125-1.1406-0.82812-1.7109-2.2305-1.4727-3.6211l4.0391-23.539-17.109-16.68v0.003906c-1.0078-0.98438-1.3711-2.457-0.9375-3.793 0.4375-1.3398 1.5938-2.3164 2.9883-2.5195l23.68-3.4336 10.574-21.422c0.68359-1.1914 1.9531-1.9297 3.3281-1.9297s2.6445 0.73828 3.332 1.9297l10.574 21.422 23.68 3.4336c1.3945 0.20312 2.5508 1.1797 2.9844 2.5195 0.4375 1.3359 0.074218 2.8086-0.9375 3.793l-17.109 16.68 4.0391 23.539 0.003907-0.003906c0.1875 1.0781-0.11328 2.1797-0.81641 3.0156-0.70312 0.83203-1.7383 1.3164-2.832 1.3125zm-22.867-19.422c0.59766-0.003906 1.1914 0.14453 1.7188 0.42578l16.234 8.5312-3.1016-18.078v0.003906c-0.20312-1.1992 0.19531-2.4219 1.0664-3.2734l13.133-12.801-18.152-2.6328c-1.2031-0.17578-2.2422-0.93359-2.7812-2.0273l-8.1172-16.441-8.1406 16.441c-0.53516 1.0938-1.5781 1.8516-2.7812 2.0273l-18.152 2.6328 13.133 12.801h0.003906c0.87109 0.85156 1.2695 2.0742 1.0664 3.2734l-3.1016 18.078 16.234-8.5312v-0.003906c0.53516-0.28516 1.1328-0.43359 1.7383-0.42578z"/>
 </g>
</svg>
