<?xml version="1.0" encoding="UTF-8"?>
<svg width="752pt" height="752pt" version="1.1" viewBox="0 0 752 752" xmlns="http://www.w3.org/2000/svg">
 <g fill="#ffd65b">
  <path d="m238.93 366.47c-0.42969-1.332-1.5742-2.3086-2.9609-2.5195l-23.641-3.4336-10.605-21.426c-0.68359-1.1914-1.9531-1.9258-3.3281-1.9258s-2.6445 0.73438-3.332 1.9258l-10.543 21.426-23.641 3.4336c-1.3945 0.19922-2.5547 1.1758-2.9883 2.5156-0.4375 1.3398-0.070313 2.8125 0.9375 3.793l17.109 16.672-4.0391 23.547h-0.003907c-0.23438 1.3906 0.33984 2.793 1.4805 3.6172 1.1367 0.83594 2.6484 0.94531 3.8945 0.28125l21.141-11.113 21.148 11.098v0.003906c1.2422 0.65234 2.7539 0.54297 3.8906-0.28125 1.1406-0.82812 1.7148-2.2305 1.4805-3.6211l-4.0391-23.547 17.109-16.672-0.003906 0.003906c1-0.98047 1.3633-2.4414 0.93359-3.7773z"/>
  <path d="m327.73 366.47c-0.42969-1.332-1.5742-2.3086-2.9609-2.5195l-23.641-3.4336-10.574-21.422v-0.003906c-0.6875-1.1914-1.957-1.9258-3.332-1.9258s-2.6445 0.73438-3.3281 1.9258l-10.574 21.422-23.641 3.4336-0.003906 0.003907c-1.3906 0.19922-2.5508 1.1758-2.9844 2.5156-0.4375 1.3398-0.074219 2.8125 0.9375 3.793l17.109 16.672-4.0391 23.547h-0.003906c-0.23438 1.3906 0.33984 2.793 1.4805 3.6172 1.1328 0.83594 2.6484 0.94531 3.8906 0.28125l21.141-11.113 21.148 11.098v0.003906c1.2461 0.65234 2.7539 0.54297 3.8945-0.28125 1.1406-0.82812 1.7148-2.2305 1.4805-3.6211l-4.0391-23.547 17.109-16.672-0.003906 0.003906c1-0.98047 1.3594-2.4414 0.93359-3.7773z"/>
  <path d="m416.52 366.47c-0.42969-1.332-1.5781-2.3086-2.9609-2.5195l-23.641-3.4336-10.574-21.422v-0.003906c-0.6875-1.1914-1.957-1.9258-3.332-1.9258s-2.6445 0.73438-3.3281 1.9258l-10.574 21.422-23.641 3.4336-0.003906 0.003907c-1.3945 0.19922-2.5508 1.1758-2.9844 2.5156-0.4375 1.3398-0.074219 2.8125 0.9375 3.793l17.109 16.672-4.0391 23.547h-0.003907c-0.23438 1.3906 0.33594 2.793 1.4805 3.6172 1.1328 0.83594 2.6484 0.94531 3.8906 0.28125l21.141-11.113 21.141 11.098v0.003906c1.25 0.65625 2.7617 0.54688 3.9023-0.28125s1.7109-2.2305 1.4727-3.6211l-4.0391-23.539 17.109-16.68-0.003907 0.003906c1.0039-0.98047 1.3672-2.4414 0.94141-3.7773z"/>
  <path d="m505.32 366.47c-0.42969-1.332-1.5781-2.3086-2.9609-2.5195l-23.641-3.4336-10.574-21.422-0.003906-0.003906c-0.68359-1.1914-1.9531-1.9258-3.3281-1.9258s-2.6445 0.73438-3.3281 1.9258l-10.574 21.422-23.641 3.4336-0.003906 0.003907c-1.3945 0.19922-2.5508 1.1758-2.9844 2.5156-0.4375 1.3398-0.074219 2.8125 0.9375 3.793l17.109 16.68-4.0391 23.539h-0.003906c-0.23828 1.3906 0.33203 2.793 1.4727 3.6211 1.1406 0.82812 2.6523 0.9375 3.8984 0.27734l21.141-11.113 21.141 11.098v0.003906c1.2461 0.65625 2.7617 0.54688 3.9023-0.28125s1.7109-2.2305 1.4727-3.6211l-4.0391-23.539 17.109-16.68-0.003906 0.003906c1.0039-0.98047 1.3672-2.4414 0.94141-3.7773z"/>
  <path d="m594.11 366.47c-0.42578-1.332-1.5742-2.3086-2.957-2.5195l-23.641-3.4336-10.574-21.422-0.003906-0.003906c-0.68359-1.1914-1.9531-1.9258-3.3281-1.9258s-2.6445 0.73438-3.332 1.9258l-10.574 21.422-23.641 3.4336v0.003907c-1.3945 0.19922-2.5508 1.1758-2.9883 2.5156-0.43359 1.3398-0.070313 2.8125 0.9375 3.793l17.109 16.68-4.0391 23.539c-0.23828 1.3906 0.33203 2.793 1.4727 3.6211 1.1406 0.82812 2.6523 0.9375 3.8984 0.27734l21.141-11.113 21.141 11.098v0.003906c1.2461 0.65625 2.7578 0.54688 3.8984-0.28125 1.1406-0.82812 1.7148-2.2305 1.4727-3.6211l-4.0391-23.539 17.109-16.68v0.003906c1.0039-0.98047 1.3672-2.4414 0.9375-3.7773z"/>
 </g>
</svg>
