<?xml version="1.0" encoding="UTF-8"?>
<svg width="752pt" height="752pt" version="1.1" viewBox="0 0 752 752" xmlns="http://www.w3.org/2000/svg">
 <g fill="#fff">
  <path d="m570.2 256.82c-6.3359 16.371-12.625 32.699-18.961 49.07-10.082 26.082-20.164 52.121-30.199 78.207-2.3125 5.9648-4.625 11.977-6.9375 17.945 4.4414-3.375 8.9258-6.7969 13.367-10.176h-21.551-51.52-62.297-53.832c-8.7422 0-17.48-0.23047-26.223 0h-0.37109c4.4414 3.375 8.9258 6.7969 13.367 10.176-2.2188-6.7539-4.4414-13.504-6.6602-20.305-5.3633-16.234-10.684-32.465-16.047-48.699-6.4297-19.562-12.855-39.125-19.332-58.688-5.5977-16.973-11.191-33.945-16.742-50.918-2.7305-8.2305-5.2734-16.512-8.1406-24.695-0.046875-0.14062-0.09375-0.23047-0.14062-0.37109-1.9414-5.8281-7.0742-10.176-13.367-10.176h-66.598-9.5742c-7.2617 0-14.199 6.3828-13.875 13.875 0.32422 7.5391 6.1055 13.875 13.875 13.875h66.598 9.5742c-4.4414-3.375-8.9258-6.7969-13.367-10.176 2.2188 6.7539 4.4414 13.504 6.6602 20.305 5.3633 16.234 10.684 32.465 16.047 48.699 6.4297 19.559 12.902 39.121 19.332 58.684 5.5977 16.973 11.191 33.945 16.742 50.918 2.7305 8.2305 5.2734 16.512 8.1406 24.695 0.046875 0.14062 0.09375 0.23047 0.14062 0.37109 1.9414 5.8281 7.0742 10.176 13.367 10.176h21.551 51.52 62.297 53.832c8.7422 0 17.48 0.27734 26.223 0h0.37109c6.6133 0 11.145-4.3945 13.367-10.176 6.3359-16.371 12.625-32.699 18.961-49.07 10.082-26.082 20.164-52.121 30.199-78.207 2.3125-5.9648 4.625-11.977 6.9375-17.945 1.2031-3.1445 0.23047-7.8633-1.3867-10.684-1.6641-2.8672-4.9961-5.6406-8.2773-6.3828-3.5625-0.78516-7.5391-0.64844-10.684 1.3867-3.2422 2.0859-5.0469 4.7695-6.3867 8.2852z"/>
  <path d="m299.69 398.71c-7.4922 13.367-15.031 26.684-22.523 40.051-1.0625 1.9414-2.1719 3.8398-3.2383 5.7812-5.1328 9.1094 1.3398 20.859 11.977 20.859h24.004 57.672 69.789 60.355c9.7578 0 19.562 0.18359 29.367 0h0.41797c7.2617 0 14.199-6.3828 13.875-13.875-0.32422-7.5391-6.1055-13.875-13.875-13.875h-24.004-57.672-69.789-60.355c-9.7578 0-19.609-0.27734-29.367 0h-0.41797c3.9766 6.9375 8 13.922 11.977 20.859 7.4922-13.367 15.031-26.684 22.523-40.051 1.0625-1.9414 2.1719-3.8398 3.2383-5.7812 3.5625-6.3359 1.7109-15.445-4.9961-18.961-6.5625-3.4258-15.164-1.7617-18.957 4.9922z"/>
  <path d="m439.08 518.4c0.09375 8.9727 2.6836 18.27 7.9531 25.621 5.8281 8.0938 13.273 13.734 22.617 17.25 16.648 6.2422 37.602 0.69531 48.93-12.996 6.6133-8 10.312-16.926 11.145-27.285 0.73828-8.832-1.7578-18.359-6.3359-25.945-4.4844-7.3516-11.191-13.828-19.102-17.438-9.4805-4.3477-19.332-5.5508-29.551-3.5625-20.715 4.0742-35.422 23.684-35.656 44.355-0.09375 7.2617 6.4297 14.199 13.875 13.875 7.5859-0.32422 13.781-6.1055 13.875-13.875 0-1.5273 0.14062-3.0078 0.32422-4.4844-0.18359 1.25-0.32422 2.4492-0.50781 3.6992 0.41797-2.6836 1.1094-5.2734 2.1719-7.7695-0.46094 1.1094-0.92578 2.2188-1.3867 3.3281 0.78516-1.7578 1.6641-3.4688 2.7305-5.0859 0.09375-0.14063 0.78516-1.25 0.87891-1.25 0.046875 0-2.3125 2.8203-1.0625 1.3867 0.64844-0.73828 1.2969-1.5273 2.0352-2.2188 0.64844-0.64844 1.3398-1.25 1.9883-1.8516 0.87891-0.78516 2.2188-1.1562-1.1562 0.87891 0.32422-0.18359 0.64844-0.46094 0.97266-0.69531 1.7109-1.1562 3.4688-2.082 5.3633-2.9141-1.1094 0.46094-2.2188 0.92578-3.3281 1.3867 2.4961-1.0156 5.0859-1.7578 7.7695-2.1719-1.25 0.18359-2.4492 0.32422-3.6992 0.50781 3.0078-0.41797 5.9648-0.41797 8.9727 0-1.25-0.18359-2.4492-0.32422-3.6992-0.50781 2.6836 0.41797 5.2734 1.1094 7.7695 2.1719-1.1094-0.46094-2.2188-0.92578-3.3281-1.3867 1.7578 0.78516 3.4688 1.6641 5.0859 2.7305 0.14063 0.09375 1.25 0.78516 1.25 0.87891 0 0.046875-2.8203-2.3125-1.3867-1.0625 0.73828 0.64844 1.5273 1.2969 2.2188 2.0352 0.64844 0.64844 1.25 1.3398 1.8516 1.9883 0.78516 0.87891 1.1562 2.2188-0.87891-1.1562 0.18359 0.32422 0.46094 0.64844 0.69531 0.97266 1.1562 1.7109 2.082 3.4688 2.9141 5.3633-0.46094-1.1094-0.92578-2.2188-1.3867-3.3281 1.0156 2.4961 1.7578 5.0859 2.1719 7.7695-0.18359-1.25-0.32422-2.4492-0.50781-3.6992 0.41797 3.0078 0.41797 5.9648 0 8.9727 0.18359-1.25 0.32422-2.4492 0.50781-3.6992-0.41797 2.6836-1.1094 5.2734-2.1719 7.7695 0.46094-1.1094 0.92578-2.2188 1.3867-3.3281-0.78516 1.7578-1.6641 3.4688-2.7305 5.0859-0.09375 0.14062-0.78516 1.25-0.87891 1.25-0.046875 0 2.3125-2.8203 1.0625-1.3867-0.64844 0.73828-1.2969 1.5273-2.0352 2.2188-0.64844 0.64844-1.3398 1.25-1.9883 1.8516-0.87891 0.78516-2.2188 1.1562 1.1562-0.87891-0.32422 0.18359-0.64844 0.46094-0.97266 0.69531-1.7109 1.1562-3.4688 2.082-5.3633 2.9141 1.1094-0.46094 2.2188-0.92578 3.3281-1.3867-2.4961 1.0156-5.0859 1.7578-7.7695 2.1719 1.25-0.18359 2.4492-0.32422 3.6992-0.50781-3.0078 0.41797-5.9648 0.41797-8.9727 0 1.25 0.18359 2.4492 0.32422 3.6992 0.50781-2.6836-0.41797-5.2734-1.1094-7.7695-2.1719 1.1094 0.46094 2.2188 0.92578 3.3281 1.3867-1.7578-0.78516-3.4688-1.6641-5.0859-2.7305-0.14062-0.09375-1.25-0.78516-1.25-0.87891 0-0.046875 2.8203 2.3125 1.3867 1.0625-0.73828-0.64844-1.5273-1.2969-2.2188-2.0352-0.64844-0.64844-1.25-1.3398-1.8516-1.9883-0.78516-0.87891-1.1562-2.2188 0.87891 1.1562-0.18359-0.32422-0.46094-0.64844-0.69531-0.97266-1.1562-1.7109-2.082-3.4688-2.9141-5.3633 0.46094 1.1094 0.92578 2.2188 1.3867 3.3281-1.0156-2.4961-1.7578-5.0859-2.1719-7.7695 0.18359 1.25 0.32422 2.4492 0.50781 3.6992-0.18359-1.4805-0.32422-2.9609-0.32422-4.4844-0.09375-7.2617-6.3359-14.199-13.875-13.875-7.4453 0.32031-13.965 6.0547-13.875 13.871z"/>
  <path d="m279.67 518.4c0.09375 8.9727 2.6836 18.27 7.9531 25.621 5.8281 8.0938 13.273 13.734 22.617 17.25 16.648 6.2422 37.602 0.69531 48.93-12.996 6.6133-8 10.312-16.926 11.145-27.285 0.73828-8.832-1.7578-18.359-6.3359-25.945-4.4844-7.3516-11.191-13.828-19.102-17.438-9.4805-4.3477-19.332-5.5508-29.551-3.5625-20.766 4.0742-35.473 23.684-35.656 44.355-0.09375 7.2617 6.4297 14.199 13.875 13.875 7.5859-0.32422 13.781-6.1055 13.875-13.875 0-1.5273 0.14062-3.0078 0.32422-4.4844-0.18359 1.25-0.32422 2.4492-0.50781 3.6992 0.41797-2.6836 1.1094-5.2734 2.1719-7.7695-0.46094 1.1094-0.92578 2.2188-1.3867 3.3281 0.78516-1.7578 1.6641-3.4688 2.7305-5.0859 0.09375-0.14063 0.78516-1.25 0.87891-1.25 0.046875 0-2.3125 2.8203-1.0625 1.3867 0.64844-0.73828 1.2969-1.5273 2.0352-2.2188 0.64844-0.64844 1.3398-1.25 1.9883-1.8516 0.87891-0.78516 2.2188-1.1562-1.1562 0.87891 0.32422-0.18359 0.64844-0.46094 0.97266-0.69531 1.7109-1.1562 3.4688-2.082 5.3633-2.9141-1.1094 0.46094-2.2188 0.92578-3.3281 1.3867 2.4961-1.0156 5.0859-1.7578 7.7695-2.1719-1.25 0.18359-2.4492 0.32422-3.6992 0.50781 3.0078-0.41797 5.9648-0.41797 8.9727 0-1.25-0.18359-2.4492-0.32422-3.6992-0.50781 2.6836 0.41797 5.2734 1.1094 7.7695 2.1719-1.1094-0.46094-2.2188-0.92578-3.3281-1.3867 1.7578 0.78516 3.4688 1.6641 5.0859 2.7305 0.14062 0.09375 1.25 0.78516 1.25 0.87891 0 0.046875-2.8203-2.3125-1.3867-1.0625 0.73828 0.64844 1.5273 1.2969 2.2188 2.0352 0.64844 0.64844 1.25 1.3398 1.8516 1.9883 0.78516 0.87891 1.1562 2.2188-0.87891-1.1562 0.18359 0.32422 0.46094 0.64844 0.69531 0.97266 1.1562 1.7109 2.082 3.4688 2.9141 5.3633-0.46094-1.1094-0.92578-2.2188-1.3867-3.3281 1.0156 2.4961 1.7578 5.0859 2.1719 7.7695-0.18359-1.25-0.32422-2.4492-0.50781-3.6992 0.41797 3.0078 0.41797 5.9648 0 8.9727 0.18359-1.25 0.32422-2.4492 0.50781-3.6992-0.41797 2.6836-1.1094 5.2734-2.1719 7.7695 0.46094-1.1094 0.92578-2.2188 1.3867-3.3281-0.78516 1.7578-1.6641 3.4688-2.7305 5.0859-0.09375 0.14062-0.78516 1.25-0.87891 1.25-0.046876 0 2.3125-2.8203 1.0625-1.3867-0.64844 0.73828-1.2969 1.5273-2.0352 2.2188-0.64844 0.64844-1.3398 1.25-1.9883 1.8516-0.87891 0.78516-2.2188 1.1562 1.1562-0.87891-0.32422 0.18359-0.64844 0.46094-0.97266 0.69531-1.7109 1.1562-3.4688 2.082-5.3633 2.9141 1.1094-0.46094 2.2188-0.92578 3.3281-1.3867-2.4961 1.0156-5.0859 1.7578-7.7695 2.1719 1.25-0.18359 2.4492-0.32422 3.6992-0.50781-3.0078 0.41797-5.9648 0.41797-8.9727 0 1.25 0.18359 2.4492 0.32422 3.6992 0.50781-2.6836-0.41797-5.2734-1.1094-7.7695-2.1719 1.1094 0.46094 2.2188 0.92578 3.3281 1.3867-1.7578-0.78516-3.4688-1.6641-5.0859-2.7305-0.14062-0.09375-1.25-0.78516-1.25-0.87891 0-0.046875 2.8203 2.3125 1.3867 1.0625-0.73828-0.64844-1.5273-1.2969-2.2188-2.0352-0.64844-0.64844-1.25-1.3398-1.8516-1.9883-0.78516-0.87891-1.1562-2.2188 0.87891 1.1562-0.18359-0.32422-0.46094-0.64844-0.69531-0.97266-1.1562-1.7109-2.082-3.4688-2.9141-5.3633 0.46094 1.1094 0.92578 2.2188 1.3867 3.3281-1.0156-2.4961-1.7578-5.0859-2.1719-7.7695 0.18359 1.25 0.32422 2.4492 0.50781 3.6992-0.18359-1.4805-0.32422-2.9609-0.32422-4.4844-0.09375-7.2617-6.3359-14.199-13.875-13.875-7.4961 0.32031-13.969 6.0547-13.875 13.871z"/>
  <path d="m431.22 327.21v-42.316-67.383-15.402c0-7.2617-6.3828-14.199-13.875-13.875-7.5391 0.32422-13.875 6.1055-13.875 13.875v42.316 67.383 15.402c0 7.2617 6.3828 14.199 13.875 13.875 7.5391-0.37109 13.875-6.1055 13.875-13.875z"/>
  <path d="m479.88 250.76h-42.316-67.383-15.402c-7.2617 0-14.199 6.3828-13.875 13.875 0.32422 7.5391 6.1055 13.875 13.875 13.875h42.316 67.383 15.402c7.2617 0 14.199-6.3828 13.875-13.875-0.32422-7.4922-6.1055-13.875-13.875-13.875z"/>
 </g>
</svg>
