<?xml version="1.0" encoding="UTF-8"?>
<svg width="752pt" height="752pt" version="1.1" viewBox="0 0 752 752" xmlns="http://www.w3.org/2000/svg">
 <path d="m568.39 257.61h-89.98c0.070313-0.39062 0.070313-0.79297 0-1.1836-3.8125-24.418-16.23-46.672-35.012-62.738-18.781-16.062-42.688-24.887-67.402-24.875-24.688 0.023437-48.559 8.8633-67.309 24.926s-31.145 38.293-34.953 62.688c-0.074219 0.39062-0.074219 0.79297 0 1.1836h-90.129c-3.9258 0-7.6914 1.5586-10.465 4.3359-2.7773 2.7734-4.3359 6.5391-4.3359 10.465v295.99c0 3.9258 1.5586 7.6875 4.3359 10.465 2.7734 2.7734 6.5391 4.332 10.465 4.332h384.79c3.9258 0 7.6875-1.5586 10.465-4.332 2.7734-2.7773 4.332-6.5391 4.332-10.465v-295.99c0-3.9258-1.5586-7.6914-4.332-10.465-2.7773-2.7773-6.5391-4.3359-10.465-4.3359zm-192.39-59.195c19.66 0.003906 38.512 7.832 52.391 21.754 10.297 10.172 17.266 23.227 19.98 37.441h-144.59c3.4023-16.664 12.438-31.648 25.594-42.43 13.152-10.781 29.617-16.703 46.625-16.766zm177.59 355.18h-355.18v-266.39h355.18zm-147.99-29.598h-59.199c-3.9258 0-7.6875-1.5586-10.465-4.3359-2.7734-2.7734-4.3359-6.5391-4.3359-10.465v-44.398h-44.398c-3.9219 0-7.6875-1.5586-10.465-4.332-2.7734-2.7773-4.332-6.543-4.332-10.465v-59.199c0-3.9258 1.5586-7.6875 4.332-10.465 2.7773-2.7734 6.543-4.3359 10.465-4.3359h44.398v-44.398c0-3.9219 1.5625-7.6875 4.3359-10.465 2.7773-2.7734 6.5391-4.332 10.465-4.332h59.199c3.9219 0 7.6875 1.5586 10.465 4.332 2.7734 2.7773 4.332 6.543 4.332 10.465v44.398h44.398c3.9258 0 7.6914 1.5625 10.465 4.3359 2.7773 2.7773 4.3359 6.5391 4.3359 10.465v59.199c0 3.9219-1.5586 7.6875-4.3359 10.465-2.7734 2.7734-6.5391 4.332-10.465 4.332h-44.398v44.398c0 3.9258-1.5586 7.6914-4.332 10.465-2.7773 2.7773-6.543 4.3359-10.465 4.3359zm-44.398-29.598h29.598v-44.398c0-3.9258 1.5586-7.6914 4.3359-10.465 2.7734-2.7773 6.5391-4.3359 10.465-4.3359h44.398v-29.598h-44.398c-3.9258 0-7.6914-1.5625-10.465-4.3359-2.7773-2.7773-4.3359-6.5391-4.3359-10.465v-44.398h-29.598v44.398c0 3.9258-1.5586 7.6875-4.3359 10.465-2.7734 2.7734-6.5391 4.3359-10.465 4.3359h-44.398v29.598h44.398c3.9258 0 7.6914 1.5586 10.465 4.3359 2.7773 2.7734 4.3359 6.5391 4.3359 10.465z" fill="#68b3b0"/>
</svg>
