<?xml version="1.0" encoding="UTF-8"?>
<svg width="752pt" height="752pt" version="1.1" viewBox="0 0 752 752" xmlns="http://www.w3.org/2000/svg">
 <path d="m565.24 561.68-3.1602 3.1602c-16.664 17.016-39.152 27.094-62.945 28.215h-15.984c-83.863 0-151.15-31.176-221.99-102.21-75.574-75.379-105.96-146.61-102.21-237.97 1.1172-23.793 11.199-46.281 28.215-62.949l3.1562-2.9609v0.003906c20.965-21.379 50.895-31.43 80.512-27.035 29.629 3.9805 55.617 21.77 70.051 47.949l4.3398 7.6953c6.1562 10.852 8.6328 23.402 7.0703 35.777-1.5664 12.379-7.0898 23.918-15.754 32.895l-23.68 23.68c15.137 27.766 34.438 53.055 57.227 74.98 21.887 22.836 47.184 42.141 74.984 57.227l23.68-23.68c8.875-8.793 20.355-14.48 32.73-16.223 12.371-1.7422 24.977 0.55469 35.938 6.5547l7.6953 4.3398c26.09 14.531 43.859 40.453 48.008 70.027 4.1484 29.574-5.8086 59.383-26.895 80.531zm-135.37-363.27c29.676 7.9336 56.734 23.551 78.453 45.27s37.332 48.777 45.27 78.453c1.1953 4.2656 3.7891 8.0078 7.3711 10.621 3.5781 2.6133 7.9336 3.9453 12.363 3.7812 1.6367 0.19141 3.293 0.19141 4.9336 0 5.2773-1.1602 9.8477-4.4336 12.645-9.0586s3.5781-10.195 2.1523-15.41c-9.7734-36.746-29.082-70.262-55.973-97.148-26.887-26.891-60.402-46.199-97.152-55.973-7.0469-1.8008-14.523 0.30078-19.605 5.5078-5.0781 5.207-6.9961 12.727-5.0312 19.73 1.9688 7.0039 7.5234 12.426 14.574 14.227zm-20.719 75.18c16.57 4.5273 31.668 13.301 43.805 25.453 12.156 12.141 20.93 27.238 25.457 43.809 1.1562 4.3047 3.7344 8.0898 7.3203 10.742 3.582 2.6523 7.957 4.0117 12.41 3.8594 1.707 0.19531 3.4258 0.19531 5.1328 0 5.0859-1.3398 9.4297-4.6602 12.062-9.2148 2.6289-4.5586 3.332-9.9805 1.9453-15.055-6.2891-23.449-18.652-44.82-35.832-61.969-17.184-17.148-38.582-29.465-62.039-35.711-5.1172-1.5664-10.648-0.98828-15.332 1.5977-4.6836 2.5898-8.1133 6.9688-9.5039 12.137-1.3945 5.168-0.62891 10.676 2.1211 15.27 2.7461 4.5898 7.2422 7.8672 12.453 9.082z" fill="#68b3b0"/>
</svg>
