<?xml version="1.0" encoding="UTF-8"?>
<svg width="752pt" height="752pt" version="1.1" viewBox="0 0 752 752" xmlns="http://www.w3.org/2000/svg">
 <path d="m473.92 440.57c-5.2461 5.3867-11.164 10.074-17.609 13.949-34.605 19.891-65.465-6.8086-108.76-50.176-43.102-43.031-69.887-73.805-50.172-108.34 3.8281-6.5742 8.5508-12.582 14.035-17.852 8.8477-9.0195 10.293-19.559 4.1641-31.801-4.668-9.3516-13.34-19.055-24.992-30.789-16.578-16.496-41.676-41.504-62.418-20.742-7.7266 7.6875-14.68 16.113-20.758 25.164-43.871 65.988-17.434 145.93 80.617 243.89 67.609 67.695 126.54 101.18 178.25 101.18 23.43-0.042969 46.309-7.1484 65.637-20.395 9.0938-6.0547 17.555-13.008 25.254-20.758 20.848-20.918-4.25-45.926-20.828-62.418-16.582-16.668-41.59-41.66-62.418-20.918zm-237.67-237.6c9.5977-9.6836 20.828-4.582 46.258 20.758 10.797 10.887 18.879 19.73 22.867 27.727 3.832 7.6445 3.2383 13.254-2.0391 18.531-2.8906 2.8906-5.5273 5.7812-7.9062 8.6719-0.50391-1.1836-1.1836-2.543-1.8633-3.9023-0.17578-0.34766-0.43359-0.52344-0.59375-0.85156-0.57031-1.0547-1.1992-2.0781-1.8828-3.0625-0.12891-0.30859-0.29688-0.59375-0.50391-0.85547-0.85156-1.3594-1.793-2.7188-2.7188-3.9023h0.003907c-0.17188-0.14844-0.31641-0.32812-0.4375-0.51953-0.85156-1.1836-1.7773-2.2109-2.6289-3.3945v-0.003907c-0.30859-0.32031-0.59375-0.66406-0.85547-1.0273-0.94141-1.0117-1.8633-2.2109-2.8906-3.2227-0.17578-0.17578-0.34766-0.52344-0.50391-0.67969-1.2031-1.2031-2.3867-2.5586-3.5703-3.918-0.33203-0.23438-0.61719-0.52344-0.85156-0.85156-1.0273-1.0117-1.9688-2.0391-2.9766-3.0664-0.34766-0.33203-0.67969-0.83594-1.1133-1.1836-1.1836-1.1836-2.457-2.543-3.7266-3.7461-1.2891-1.3594-2.6484-2.7188-4.0039-3.9023-0.34766-0.34766-0.67969-0.85156-1.0977-1.2031-1.375-1.3594-2.8203-2.7188-4.2656-4.0742 0 0-0.15625-0.17578-0.33203-0.34766-1.4453-1.3594-2.9766-2.7188-4.5117-4.0742h-0.003906c-0.41406-0.32031-0.80859-0.66016-1.1836-1.0273-1.4453-1.1836-2.8047-2.3672-4.25-3.3945-0.19141-0.26172-0.42187-0.48828-0.67969-0.67969-1.6211-1.1836-3.2383-2.3867-4.8594-3.3945-0.41797-0.34766-0.85156-0.52344-1.1836-0.85156-1.4453-0.85156-2.8906-1.707-4.3359-2.3867-0.26172-0.17578-0.59375-0.50391-0.94141-0.50391v-0.003906c-1.6328-0.82422-3.3047-1.5625-5.0156-2.2109-0.34766-0.17578-0.76563-0.17578-1.0977-0.34766-1.4062-0.49219-2.8594-0.83203-4.3359-1.0117-0.23047-0.13672-0.5-0.19922-0.76562-0.17188 3.3945-4.1523 6.9961-8.1289 10.797-11.914zm59.945 252.91c-93.035-93.035-119.23-167.87-80.023-228.41 0.17578 0 0.43359-0.17578 0.60938-0.17578 0.33203-0.17578 0.59375-0.34766 0.92188-0.50391 0.39062-0.035157 0.76953-0.15234 1.1133-0.34766 0.31641 0.035157 0.64062-0.023437 0.92188-0.17578 0.38672-0.125 0.79688-0.17969 1.2031-0.15625h2.3008-0.003906c0.31641-0.023437 0.63672 0.03125 0.92578 0.15625 0.43359 0.17578 0.94141 0.17578 1.3594 0.34766v0.003906c0.35156-0.03125 0.70312 0.03125 1.0273 0.17188 0.41797 0.15625 0.94141 0.33203 1.3594 0.50391l-0.003906 0.003906c0.39453 0.023438 0.77344 0.13672 1.1172 0.32812 0.51172 0.16406 0.99609 0.39844 1.4453 0.69922 0.33203 0.15625 0.76562 0.33203 1.0977 0.50391 0.50391 0.33203 1.0273 0.50391 1.5312 0.85156 0.42578 0.16797 0.82422 0.39844 1.1836 0.67969 0.52344 0.33203 1.0273 0.67969 1.5312 1.0117 0.43359 0.17578 0.85156 0.52344 1.2891 0.67969 0.49219 0.45312 1.0273 0.85547 1.6055 1.1992 0.43359 0.33203 0.85156 0.67969 1.2891 1.0117 0.59375 0.52344 1.1836 0.85156 1.7773 1.3594 0.41797 0.34766 0.85156 0.69531 1.2695 1.0273 0.59375 0.50391 1.2891 1.0273 1.8828 1.5312 0.41797 0.33203 0.85156 0.85156 1.2695 1.1836 0.67969 0.52344 1.3594 1.2031 2.0391 1.707h-0.003907c0.47266 0.34375 0.89844 0.74219 1.2734 1.1836 0.67969 0.67969 1.4453 1.3594 2.2109 2.0547 0.43359 0.50391 0.76562 0.67969 1.2031 1.1836 0.92188 0.85156 1.8633 1.707 2.8047 2.7188h-0.003906c0.28906 0.18359 0.55078 0.41406 0.76953 0.67969 1.1836 1.2031 2.457 2.3867 3.7461 3.7461l-0.003907-0.003906c0.87891 0.79688 1.6992 1.6523 2.457 2.5625 0.26172 0.15625 0.34766 0.33203 0.59375 0.50391 0.60938 0.67969 1.2891 1.3594 1.9688 2.0391h-0.003906c0.16016 0.17578 0.32812 0.34375 0.50391 0.50391 0.67969 0.67969 1.3594 1.3594 1.9492 2.0391h0.003907c0.26562 0.16797 0.47656 0.41016 0.60938 0.69531 0.66406 0.57812 1.2852 1.1992 1.8633 1.8633 0.20312 0.30078 0.42969 0.58594 0.67969 0.85547 0.50391 0.50391 1.0977 1.1836 1.6211 1.6875h-0.003906c0.20312 0.32812 0.46094 0.61719 0.76953 0.85156 0.50391 0.67969 1.0117 1.2031 1.5312 1.8828 0.29688 0.24219 0.55469 0.53125 0.76562 0.85156 0.46094 0.53516 0.88281 1.1016 1.2734 1.6914 0.30469 0.32422 0.58594 0.66797 0.85156 1.0273 0.41797 0.50391 0.76562 1.0117 1.1836 1.5312 0.26172 0.33203 0.50391 0.67969 0.76562 1.0117 0.33203 0.52344 0.67969 1.0273 1.0273 1.5312 0.24219 0.34766 0.50391 0.67969 0.75 1.0273 0.22266 0.48828 0.51172 0.94531 0.85547 1.3594 0.19922 0.41016 0.42578 0.80469 0.67578 1.1836 0.26562 0.37891 0.49609 0.78125 0.67969 1.2031 0.26172 0.50391 0.43359 0.83594 0.60938 1.1836 0.22656 0.44141 0.42578 0.89453 0.59375 1.3594 0.19531 0.38281 0.36328 0.77734 0.50391 1.1836 0.17578 0.34766 0.26172 0.67969 0.41797 1.0273 0.09375 0.40234 0.21094 0.79688 0.34766 1.1836 0.14844 0.38672 0.23438 0.78906 0.26172 1.2031 0.11328 0.32812 0.19531 0.66406 0.24609 1.0078 0.078125 0.39844 0.10547 0.80078 0.085937 1.2031 0.070313 0.33203 0.10156 0.67188 0.085938 1.0117v0.67969c-24.156 44.062 14.891 83.176 52.719 120.93 37.844 37.914 77.047 77.047 121.27 52.719h0.52344v-0.003906c1.1953 0.035156 2.3867 0.15234 3.5703 0.34766 0.24219 0.15625 0.59375 0.15625 0.76562 0.33203 1.2891 0.30469 2.543 0.76172 3.7266 1.3594 0.34766 0.17578 0.69531 0.34766 1.0273 0.52344 1.2812 0.5625 2.5039 1.2461 3.6562 2.0352 0.41797 0.33203 0.85156 0.50391 1.2695 0.85156l0.003906 0.003906c1.2852 0.74219 2.5078 1.5938 3.6562 2.543 0.43359 0.34766 0.85156 0.67969 1.2695 1.0273 1.2891 1.0117 2.5586 1.8633 3.832 3.0469 0.43359 0.34766 0.76562 0.67969 1.2031 1.0273 1.2695 1.1836 2.6289 2.2109 3.9883 3.5703 0.26172 0.34766 0.59375 0.50391 0.85156 0.85156 1.4453 1.1836 2.8906 2.543 4.3359 3.918 0.085938 0.33203 0.26172 0.33203 0.41797 0.50391 1.5312 1.5312 3.0664 2.8906 4.5117 4.582v0.003906c1.332 1.1641 2.582 2.4141 3.7461 3.7422 0.17578 0.17578 0.33203 0.34766 0.41797 0.34766 1.0273 1.0117 2.0547 2.2109 3.0664 3.2227h-0.003907c0.28906 0.23047 0.52344 0.51953 0.67969 0.85547l2.5586 2.5586c0.24219 0.33203 0.50391 0.50391 0.85156 1.0117 0.67969 0.67969 1.3594 1.5312 2.0391 2.2109h0.003906c0.26562 0.42969 0.57422 0.83203 0.92188 1.1992 0.60938 0.67969 1.2031 1.3594 1.793 2.0391 0.26172 0.33203 0.50391 0.67969 0.85156 1.1836 0.50391 0.67969 1.0117 1.2031 1.5312 1.8828h0.003907c0.25391 0.41406 0.53906 0.80859 0.85547 1.1836 0.41797 0.50391 0.83594 1.1836 1.1836 1.707 0.30859 0.375 0.59375 0.76953 0.85156 1.1836 0.33203 0.50391 0.67969 1.0273 1.0117 1.5312 0.26172 0.50391 0.43359 0.85156 0.67969 1.3594 0.29297 0.42969 0.55078 0.88281 0.76562 1.3594 0.23438 0.375 0.43359 0.76953 0.58984 1.1836 0.17187 0.47266 0.375 0.93359 0.60937 1.375 0.15625 0.50391 0.33203 0.83594 0.41797 1.1836 0.1875 0.4375 0.32812 0.89453 0.41797 1.3594 0.14844 0.37891 0.23438 0.77734 0.26172 1.1836 0.14453 0.38672 0.23438 0.79297 0.26172 1.2031 0.085937 0.33203 0.085937 0.67969 0.17578 1.0117v2.3867c-0.085938 0.34766-0.085938 0.67969-0.17578 1.0273v-0.003906c-0.046876 0.34766-0.13281 0.6875-0.26172 1.0117-0.078125 0.35156-0.1875 0.69531-0.32812 1.0273-0.10938 0.35156-0.25391 0.69141-0.4375 1.0117-0.085938 0.17578-0.17578 0.34766-0.24219 0.52344-60.555 39.285-135.21 13.094-228.25-79.941zm252.91 59.859c-3.7812 3.8281-7.7578 7.4609-11.914 10.883-0.039062-0.28125-0.097656-0.55859-0.17188-0.83594-0.25391-1.4375-0.59375-2.8633-1.0117-4.2656-0.11719-0.40234-0.26562-0.80078-0.43359-1.1836-0.59766-1.7461-1.3086-3.4492-2.125-5.1016-0.13281-0.30469-0.30469-0.59375-0.50391-0.85547-0.76562-1.5312-1.6211-2.8906-2.4727-4.25-0.24219-0.50391-0.50391-0.85156-0.76562-1.3594-1.0977-1.5312-2.3008-3.2227-3.4844-4.7539-0.17578-0.24609-0.375-0.47266-0.59375-0.67969-1.1133-1.5312-2.3008-2.8906-3.4844-4.2656-0.34766-0.33203-0.67969-0.83594-1.0273-1.1836l-4.0742-4.5977c-0.17578-0.15625-0.34766-0.15625-0.43359-0.50391-1.3594-1.3594-2.7188-2.7188-3.9883-4.0742v-0.003907c-0.44531-0.35547-0.84766-0.75781-1.2031-1.1992-1.2695-1.3594-2.6289-2.543-3.9023-3.9023-1.2695-1.3594-2.6484-2.5586-3.918-3.918-0.32031-0.24219-0.60938-0.53125-0.85156-0.85547-1.0977-1.0117-2.2812-2.0391-3.3945-3.2227l-0.003906 0.003906c-0.21484-0.15234-0.41406-0.32812-0.58984-0.52344-1.3594-1.3594-2.7188-2.543-4.0742-3.7266-0.085938-0.17578-0.17578-0.17578-0.26172-0.34766-1.2695-1.0273-2.4727-2.0391-3.6562-3.0664h-0.003907c-0.25-0.19922-0.48047-0.42578-0.67969-0.67969-2.7188-2.2109-5.3633-4.0742-7.9922-5.957-0.17578-0.15625-0.34766-0.15625-0.50391-0.33203-1.2031-0.85156-2.3867-1.5312-3.5703-2.2109-0.17578 0-0.34766-0.17578-0.52344-0.34766-1.3242-0.69141-2.6836-1.3125-4.0742-1.8633 2.8906-2.3867 5.7812-4.9297 8.6719-7.8203 9.5273-9.6992 20.742-4.5977 46.168 20.742 10.797 10.887 18.879 19.73 22.883 27.727 3.8164 7.6445 3.2227 13.27-2.0352 18.531zm-91.258-328.76c-38.266 0.023437-73.617 20.449-92.742 53.594-19.129 33.145-19.129 73.973 0 107.11 19.125 33.145 54.477 53.57 92.742 53.594 17.023-0.011719 33.809-4.0312 48.988-11.738l49.41 31.977c0.88281 0.65234 1.9492 1.0117 3.0469 1.0273 0.98438 0.035156 1.9609-0.19922 2.8203-0.67969 1.8359-1.043 2.9727-2.9922 2.9805-5.1016v-122.62c-0.03125-28.426-11.344-55.68-31.449-75.77-20.109-20.094-47.371-31.383-75.797-31.391zm95.75 219.23-43.363-28.23c-0.96484-0.53906-2.0508-0.83203-3.1523-0.85547-0.95312-0.023438-1.8945 0.21484-2.7188 0.69922-24.656 13.703-54.105 15.836-80.48 5.8242-26.375-10.008-46.992-31.141-56.352-57.754s-6.5039-55.996 7.8008-80.312c14.305-24.312 38.605-41.082 66.414-45.828 27.809-4.7461 56.293 3.0117 77.855 21.207 21.559 18.191 34 44.969 33.996 73.18zm-46.762-135.37h-25.688v-25.691c-0.019531-4.2891-1.7383-8.3984-4.7812-11.422-3.043-3.0273-7.1602-4.7227-11.449-4.7227h-15.656c-4.293 0-8.4102 1.6953-11.453 4.7227-3.0391 3.0234-4.7578 7.1328-4.7773 11.422v25.688h-25.688l-0.003906 0.003906c-4.3164 0.015625-8.4492 1.7422-11.492 4.8008-3.0469 3.0586-4.7578 7.1992-4.7539 11.516v15.656c0.003906 4.3008 1.7188 8.4219 4.7695 11.453 3.0469 3.0312 7.1797 4.7266 11.477 4.7109h25.688v25.844c0.023437 4.2734 1.75 8.3633 4.7969 11.367 3.0469 3 7.1602 4.6602 11.438 4.6211h15.656c4.2734 0.039062 8.3906-1.6211 11.438-4.6211 3.0469-3.0039 4.7695-7.0938 4.793-11.367v-25.844h25.688c4.2969 0.011719 8.4258-1.6836 11.469-4.7148 3.0469-3.0312 4.7578-7.1523 4.7617-11.449v-15.656c0.003906-4.3125-1.7031-8.4531-4.7461-11.512-3.0391-3.0547-7.1719-4.7852-11.484-4.8047zm4.7539 31.977v-0.003906c-0.027344 2.6133-2.1406 4.7266-4.7539 4.7539h-31.383c-1.5117-0.019531-2.9727 0.5625-4.0547 1.6172-1.0859 1.0547-1.707 2.4961-1.7266 4.0078v31.629c-0.019531 1.2383-0.53125 2.4219-1.4258 3.2852-0.89063 0.85938-2.0898 1.332-3.3281 1.3125h-15.656c-1.2422 0.019531-2.4414-0.45312-3.332-1.3125-0.89062-0.86328-1.4023-2.0469-1.4219-3.2852v-31.629c-0.050781-3.1445-2.6367-5.6602-5.7852-5.625h-31.383c-2.6172-0.027344-4.7344-2.1367-4.7695-4.7539v-15.656c-0.011718-1.2656 0.48438-2.4883 1.3828-3.3828 0.89844-0.89453 2.1211-1.3867 3.3867-1.3711h31.383c3.1797-0.035156 5.75-2.6055 5.7852-5.7812v-31.473c0.027344-2.6133 2.1406-4.7266 4.7539-4.7539h15.656c2.6133 0.027344 4.7266 2.1406 4.7539 4.7539v31.473c0.027343 3.1797 2.6016 5.7539 5.7812 5.7812h31.383c1.2656-0.015625 2.4844 0.48047 3.3789 1.375 0.89844 0.89453 1.3906 2.1133 1.375 3.3789z" fill="#68b3b0"/>
</svg>
