<?xml version="1.0" encoding="UTF-8"?>
<svg width="752pt" height="752pt" version="1.1" viewBox="0 0 752 752" xmlns="http://www.w3.org/2000/svg">
 <g fill="#68b3b0">
  <path d="m429.12 210.18c-17.57-15.078-39.715-23.309-63.047-23.309-25.887 0-50.219 10.082-68.523 28.387-37.465 37.461-37.754 98.598-0.68359 136.39 0.20703 0.23828 0.42969 0.46094 0.68359 0.71094l126.55 126.55c1.3867 1.3867 3.207 2.0781 5.0234 2.0781 1.8203 0 3.6367-0.69141 5.0234-2.0781l127.09-127.07c17.973-18.223 27.871-42.387 27.871-68.039 0-25.934-10.082-50.281-28.391-68.555-35.926-35.914-93.59-37.656-131.6-5.0742zm122.04 131.66-122.04 122.01-121.57-121.57c-0.12891-0.15234-0.26172-0.29688-0.39844-0.4375-31.773-32.246-31.574-84.52 0.44531-116.54 15.617-15.625 36.391-24.223 58.477-24.223 21.848 0 42.465 8.457 58.066 23.812 2.7656 2.7227 7.2031 2.7227 9.9688-0.003907 32.25-31.801 84.539-31.613 116.57 0.41797 0 0 0 0.003907 0.003907 0.003907 15.625 15.59 24.227 36.363 24.227 58.5 0 21.895-8.4453 42.512-23.742 58.027z"/>
  <path d="m190.01 510.02 49.848 0.53125h0.29688c11.699 0 21.707-7.3984 25.625-17.781l0.96094 0.14062c8.4141 1.2539 16.039 5.0898 22.051 11.098l38.801 38.805c9.9531 9.9492 23.102 16.234 37.016 17.688l38.965 4.1094c1.6055 0.32031 3.2539 0.52734 4.9922 0.52734 0.11328 0 0.22656-0.003907 0.33984-0.003907h0.03125 0.015625 0.20312l62.984-2.0117c4.7305-0.16406 9.1797-2.0977 12.527-5.4453 3.582-3.5742 5.5703-8.5469 5.457-13.73-0.59766-18.07-15.656-32.461-33.895-31.773l-29.957 0.97266-20.273-5.0039c-0.015625-6.1328-2.3477-12.266-7.0195-16.934l-33.32-33.297-1.9805-11.469c-1.2734-7.5156-4.9492-14.629-10.348-20.023l-22.973-22.973c-6.8086-6.8164-15.855-10.688-25.465-10.91l-37.906-0.84766c-3.6328-10.723-13.707-18.523-25.648-18.656l-49.848-0.53516h-0.29688c-7.1875 0-13.977 2.7812-19.148 7.8438-5.2422 5.1289-8.1758 11.977-8.2539 19.273l-0.89844 82.703c-0.082031 7.2969 2.7031 14.207 7.8359 19.449 5.1367 5.2422 11.984 8.1758 19.281 8.2539zm130.3-96.535 22.973 22.973c3.3281 3.3281 5.5977 7.7188 6.3867 12.375l2.3672 13.715c0.046875 0.28125 0.20312 0.50781 0.28125 0.77344 0.10938 0.375 0.22266 0.73047 0.39844 1.0898 0.24609 0.50781 0.55859 0.94531 0.91406 1.375 0.15234 0.18359 0.21875 0.41016 0.38672 0.58203l34.914 34.891c3.8281 3.832 3.8281 10.059 0 13.887-3.832 3.8281-10.055 3.8281-13.887 0l-40.082-40.082c-2.7734-2.7734-7.2695-2.7734-10.043 0-2.7734 2.7734-2.7734 7.2734 0 10.043l40.082 40.082c4.6836 4.6836 10.836 7.0234 16.988 7.0234 6.1523 0 12.305-2.3398 16.988-7.0234 1.0703-1.0703 1.9883-2.2383 2.8125-3.4492l22.023 5.4414c0.070312 0.019531 0.13672 0.007812 0.20703 0.023437 0.33984 0.070313 0.69531 0.10938 1.0625 0.13281 0.14844 0.007812 0.29297 0.050781 0.44141 0.050781 0.03125 0 0.0625-0.015625 0.09375-0.015625 0.042968 0 0.085937 0.007812 0.13281 0.007812l30.926-1c10.34-0.32031 18.91 7.7812 19.246 17.965 0.027344 1.2578-0.42969 2.4297-1.2969 3.293-0.82031 0.82031-1.8242 1.2539-2.9609 1.2969l-62.465 2-4.4102-0.46484c-0.16016-0.015625-0.31641-0.042969-0.47656-0.050781l-38.219-4.0312c-10.695-1.1172-20.801-5.9531-28.457-13.609l-38.801-38.805c-8.1797-8.1758-18.551-13.398-30.02-15.102l-1.2031-0.17578 0.78125-72.762 36.172 0.80859c5.9297 0.12891 11.523 2.5234 15.742 6.7422zm-142.32-13.723c0.039063-3.5039 1.4531-6.8008 3.9844-9.2773 2.4961-2.4453 5.7617-3.7852 9.2148-3.7852h0.14062l49.848 0.53516c7.2773 0.082031 13.137 6.0625 13.062 13.34l-0.88672 82.707c-0.074218 7.2773-5.9141 13.074-13.34 13.055l-49.848-0.53125c-3.5039-0.039063-6.7969-1.4531-9.2734-3.9844-2.4805-2.5234-3.8281-5.8477-3.7891-9.3516z"/>
  <path d="m245.45 480.19c0 6.4805-5.25 11.73-11.73 11.73-6.4766 0-11.73-5.25-11.73-11.73 0-6.4766 5.2539-11.73 11.73-11.73 6.4805 0 11.73 5.2539 11.73 11.73"/>
  <path d="m447.26 257.91h-36.289c-3.9258 0-7.1055 3.1758-7.1055 7.1055v28.312h-28.305c-3.9258 0-7.1055 3.1758-7.1055 7.1055v36.289c0 3.9258 3.1758 7.1055 7.1055 7.1055h28.305v28.359c0 3.9258 3.1758 7.1055 7.1055 7.1055h36.289c3.9258 0 7.1055-3.1758 7.1055-7.1055v-28.359h28.359c3.9258 0 7.1055-3.1758 7.1055-7.1055l-0.007813-36.301c0-3.9258-3.1758-7.1055-7.1055-7.1055h-28.359v-28.312c0.003906-3.918-3.1719-7.0938-7.0977-7.0938zm28.363 71.699h-28.359c-3.9258 0-7.1055 3.1758-7.1055 7.1055v28.359h-22.082v-28.359c0-3.9258-3.1758-7.1055-7.1055-7.1055h-28.305v-22.082h28.305c3.9258 0 7.1055-3.1758 7.1055-7.1055v-28.312h22.082v28.312c0 3.9258 3.1758 7.1055 7.1055 7.1055h28.359z"/>
  <path d="m455.73 384.48c-8.4453 3.4141-17.391 5.1445-26.598 5.1445-39.168 0-71.039-31.867-71.039-71.039l0.019532-1.6055c0.09375-3.9219-3.0117-7.1758-6.9336-7.2695-3.8516-0.13281-7.1758 3.0117-7.2695 6.9336l-0.023437 1.9414c0 47.004 38.242 85.246 85.246 85.246 11.035 0 21.773-2.0781 31.918-6.1797 3.6367-1.4727 5.3945-5.6133 3.9258-9.25-1.4727-3.6406-5.6133-5.4023-9.2461-3.9219z"/>
  <path d="m429.14 233.34c-35.801 0-68.023 22.609-80.188 56.262-1.3359 3.6875 0.57812 7.7617 4.2656 9.0938 3.6875 1.3359 7.7617-0.57422 9.0938-4.2656 10.133-28.039 36.992-46.883 66.828-46.883 39.168 0 71.039 31.867 71.039 71.039 0 18.797-7.2695 36.52-20.473 49.891-2.7578 2.793-2.7227 7.293 0.066406 10.051 1.3828 1.3633 3.1875 2.0469 4.9922 2.0469 1.832 0 3.6641-0.70703 5.0586-2.1133 15.84-16.055 24.566-37.312 24.566-59.875-0.003907-47.004-38.242-85.246-85.25-85.246z"/>
 </g>
</svg>
