<?xml version="1.0" encoding="UTF-8"?>
<svg width="752pt" height="752pt" version="1.1" viewBox="0 0 752 752" xmlns="http://www.w3.org/2000/svg">
 <path d="m571.45 268.02-287.46-20.789-5.3984-31.637c-1.6875-9.918-6.832-18.922-14.52-25.414-7.6875-6.4883-17.426-10.051-27.488-10.055h-54.746c-7.8438 0-14.207 6.3594-14.207 14.207 0 7.8477 6.3633 14.207 14.207 14.207h54.938c7.0078-0.097657 13.039 4.9297 14.207 11.84l34.43 201.89v0.99609c-0.20312 1.9609 0.007812 3.9453 0.61328 5.8242l7.7188 45.273h0.003907c-12.395 5.7578-21.977 16.23-26.613 29.086-4.6367 12.859-3.9453 27.035 1.9219 39.379 5.8672 12.344 16.418 21.832 29.316 26.359 12.895 4.5234 27.066 3.7109 39.359-2.2617 12.293-5.9727 21.688-16.609 26.102-29.547 4.4141-12.934 3.4766-27.094-2.6016-39.336h122.47c-6.6367 13.375-7.0977 28.984-1.2617 42.73 5.8398 13.742 17.391 24.246 31.625 28.758s29.73 2.5781 42.418-5.2969c12.688-7.8711 21.305-20.895 23.582-35.652 2.2773-14.758-2.0039-29.773-11.727-41.105-9.7227-11.336-23.91-17.855-38.844-17.848h-207.62l-5.4922-32.062h161.02c18.703 0.019532 36.895-6.1133 51.77-17.453 14.871-11.34 25.605-27.254 30.539-45.297l24.391-88.797c1.1328-4.1055 0.36328-8.5-2.0977-11.977-2.457-3.4805-6.3477-5.668-10.594-5.9688zm-233.1 252.61c0 6.043-2.3984 11.836-6.6719 16.109-4.2734 4.2695-10.066 6.6719-16.105 6.6719-6.043 0-11.836-2.4023-16.109-6.6719-4.2734-4.2734-6.6719-10.066-6.6719-16.109 0-6.043 2.3984-11.836 6.6719-16.105 4.2734-4.2734 10.066-6.6719 16.109-6.6719 6.0352 0.011719 11.824 2.4141 16.094 6.6836 4.2656 4.2695 6.6719 10.055 6.6836 16.094zm213.92 0c0 6.043-2.4023 11.836-6.6719 16.109-4.2734 4.2695-10.066 6.6719-16.109 6.6719-6.0391 0-11.836-2.4023-16.105-6.6719-4.2734-4.2734-6.6719-10.066-6.6719-16.109 0-6.043 2.3984-11.836 6.6719-16.105 4.2695-4.2734 10.066-6.6719 16.105-6.6719 6.0391 0.011719 11.824 2.4141 16.094 6.6836 4.2695 4.2695 6.6719 10.055 6.6875 16.094zm-19.988-153.34c-3.2773 12.02-10.418 22.625-20.32 30.191-9.8984 7.5625-22.012 11.664-34.473 11.672h-165.75l-22.871-133.08 263.21 18.941z" fill="#68b3b0"/>
</svg>
