<?xml version="1.0" encoding="UTF-8"?>
<svg width="752pt" height="752pt" version="1.1" viewBox="0 0 752 752" xmlns="http://www.w3.org/2000/svg">
 <defs>
  <clipPath id="a">
   <path d="m139.21 176h473.58v400h-473.58z"/>
  </clipPath>
 </defs>
 <g clip-path="url(#a)">
  <path d="m451.34 176.96c-89.16 0-161.45 57.406-161.45 128.22 0 70.816 72.289 128.22 161.45 128.22 6.0078 0 11.938-0.26562 17.781-0.77734 9.8789 32.602 39.898 56.328 75.426 56.328-18.516-18.691-25.891-44.355-22.156-68.609 53.535-20.875 90.395-64.598 90.395-115.16 0-70.816-72.281-128.22-161.45-128.22zm-173.16 87.348c-78.527 8.6875-138.97 62.223-138.97 126.98 0 50.562 36.859 94.285 90.395 115.16 3.7383 24.258-3.6406 49.918-22.156 68.609 35.535 0 65.555-23.723 75.426-56.328 5.8398 0.51172 11.766 0.77734 17.781 0.77734 61.594 0 115.13-27.402 142.36-67.691-56.859-1.7891-114.1-27.129-148.14-73.547-23.406-32.328-29.48-76.359-16.688-113.96z" fill="#fff"/>
 </g>
</svg>
