<?xml version="1.0" encoding="UTF-8"?>
<svg width="752pt" height="752pt" version="1.1" viewBox="0 0 752 752" xmlns="http://www.w3.org/2000/svg">
 <path d="m292.83 383.11 35.668-66.301 82.875 140.3c2.6094 4.4062 7.3125 7.1484 12.434 7.2539 5.0312-0.011719 9.7148-2.5742 12.43-6.8086l43.363-66.746h88.797c3.9258 0 7.6875-1.5586 10.465-4.3359 2.7734-2.7734 4.332-6.5391 4.332-10.465 0-49.352-17.617-97.086-49.684-134.61-32.062-37.52-76.469-62.359-125.22-70.051s-98.648 2.2734-140.71 28.098c-42.055 25.828-73.516 65.816-88.707 112.77-1.418 4.957-0.14844 10.297 3.3438 14.09 3.4922 3.7891 8.707 5.4922 13.762 4.4883 5.0586-1 9.2305-4.5625 11.012-9.4023 11.539-35.746 34.113-66.918 64.48-89.027 30.367-22.109 66.965-34.02 104.53-34.02 37.566 0 74.16 11.91 104.53 34.02 30.367 22.109 52.941 53.281 64.48 89.027 4.3516 12.906 7.2305 26.262 8.582 39.812h-81.395c-5.0352 0.007813-9.7148 2.5703-12.434 6.8047l-35.074 53.871-84.062-142.22c-2.8203-4.4766-7.7305-7.2109-13.023-7.25-2.6094 0.042969-5.1641 0.78125-7.3984 2.1328-2.2344 1.3516-4.0742 3.2695-5.3281 5.5625l-43.953 81.102h-87.316c-3.9258 0-7.6914 1.5586-10.465 4.332-2.7773 2.7773-4.3359 6.543-4.3359 10.465 0 49.355 17.621 97.09 49.684 134.61 32.066 37.52 76.469 62.359 125.22 70.051 48.75 7.6914 98.645-2.2734 140.7-28.102 42.059-25.824 73.516-65.816 88.711-112.77 1.4141-4.957 0.14844-10.293-3.3438-14.086-3.4922-3.793-8.707-5.4922-13.766-4.4922-5.0547 1.0039-9.2266 4.5664-11.008 9.4023-11.539 35.75-34.113 66.918-64.48 89.031-30.371 22.109-66.965 34.02-104.53 34.02-37.562 0-74.16-11.91-104.53-34.02-30.367-22.113-52.941-53.281-64.48-89.031-4.3516-12.902-7.2305-26.258-8.582-39.809h81.395c2.6641 0.007813 5.2773-0.70312 7.5703-2.0586 2.293-1.3555 4.1758-3.3008 5.4531-5.6367z" fill="#68b3b0"/>
</svg>
