<?xml version="1.0" encoding="UTF-8"?>
<svg width="752pt" height="752pt" version="1.1" viewBox="0 0 752 752" xmlns="http://www.w3.org/2000/svg">
 <g fill="#68b3b0">
  <path d="m293.85 229.78c-12.664-20.664-34.699-32.996-58.961-32.996-12.691 0-25.152 3.5234-36.023 10.184-32.469 19.895-42.703 62.504-22.805 94.988l73.504 119.48 117.79-72.164zm-106.89 65.488c-16.211-26.465-7.875-61.184 18.59-77.398 8.8672-5.4258 19.008-8.3008 29.344-8.3008 19.773 0 37.738 10.055 48.059 26.898l66.805 108.59-95.988 58.812z"/>
  <path d="m274.5 239.02c-6.6211-10.957-17.113-18.68-29.543-21.742-12.426-3.0586-25.309-1.1016-36.266 5.5234l6.6172 10.945c8.0312-4.8594 17.477-6.293 26.586-4.0508 9.1133 2.25 16.809 7.9102 21.66 15.945l51.879 85.836 10.945-6.6094z"/>
  <path d="m576.03 244.87c-12.707-20.352-34.633-32.5-58.648-32.5-12.906 0-25.531 3.6289-36.535 10.496l-118.85 74.504 73.16 117.18 118.87-74.512c32.305-20.176 42.18-62.863 22.008-95.172zm-28.789 84.324-108.02 67.719-59.613-95.484 108.04-67.723c8.9609-5.5938 19.242-8.5469 29.75-8.5469 19.574 0 37.445 9.9023 47.805 26.484 16.426 26.324 8.3828 61.117-17.953 77.551z"/>
  <path d="m549.4 261.61c10.164 16.496 5.0156 38.184-11.484 48.355l-85.391 52.602 6.707 10.887 85.395-52.605c22.496-13.867 29.523-43.445 15.66-65.945z"/>
  <path d="m340.27 408.02c0 11.469 9.3359 20.805 20.805 20.805 11.477 0 20.809-9.3359 20.809-20.805 0-11.477-9.3359-20.809-20.809-20.809-11.469 0-20.805 9.3359-20.805 20.809zm20.805-8.0195c4.4219 0 8.0117 3.5977 8.0117 8.0195 0 4.418-3.5938 8.0078-8.0117 8.0078s-8.0117-3.5938-8.0117-8.0078c-0.007812-4.4219 3.5938-8.0195 8.0117-8.0195z"/>
  <path d="m409.02 433.9c-11.477 0-20.809 9.3359-20.809 20.809 0 11.469 9.3359 20.805 20.809 20.805 11.469 0 20.805-9.3359 20.805-20.805-0.003907-11.48-9.3359-20.809-20.805-20.809zm0 28.82c-4.4219 0-8.0195-3.5938-8.0195-8.0117 0-4.418 3.5977-8.0195 8.0195-8.0195 4.418 0 8.0078 3.5977 8.0078 8.0195 0 4.418-3.5938 8.0117-8.0078 8.0117z"/>
  <path d="m361.07 465.68c-11.469 0-20.805 9.3359-20.805 20.809 0 11.469 9.3359 20.805 20.805 20.805 11.477 0 20.809-9.3359 20.809-20.805-0.003906-11.48-9.332-20.809-20.809-20.809zm0 28.816c-4.418 0-8.0117-3.5938-8.0117-8.0117s3.5977-8.0195 8.0117-8.0195c4.4219 0 8.0117 3.5977 8.0117 8.0195 0 4.418-3.5938 8.0117-8.0117 8.0117z"/>
  <path d="m402.4 513.62c-11.469 0-20.805 9.3359-20.805 20.805s9.3359 20.805 20.805 20.805 20.805-9.3359 20.805-20.805c0-11.473-9.332-20.805-20.805-20.805zm0 28.82c-4.4219 0-8.0195-3.5977-8.0195-8.0195 0-4.418 3.5977-8.0117 8.0195-8.0117 4.418 0 8.0195 3.5938 8.0195 8.0117 0 4.4219-3.5938 8.0195-8.0195 8.0195z"/>
  <path d="m309.89 433.92c-11.469 0-20.805 9.3359-20.805 20.809 0 11.469 9.3359 20.805 20.805 20.805s20.805-9.3359 20.805-20.805c0-11.477-9.3359-20.809-20.805-20.809zm0 28.82c-4.4219 0-8.0117-3.5977-8.0117-8.0117 0-4.4219 3.5938-8.0117 8.0117-8.0117s8.0195 3.5938 8.0195 8.0117c-0.003906 4.418-3.5977 8.0117-8.0195 8.0117z"/>
 </g>
</svg>
