<?xml version="1.0" encoding="UTF-8"?>
<svg width="752pt" height="752pt" version="1.1" viewBox="0 0 752 752" xmlns="http://www.w3.org/2000/svg">
 <path d="m506.23 151.52c-40.727 0-67.246-7.5781-109.39-7.5781-136.87 0-200.32 77.668-200.32 156.76 0 46.41 22.258 62.039 65.355 62.039-2.8398-6.6289-8.5234-14.207-8.5234-47.359 0-92.348 35.047-119.34 79.562-121.24 0 0-36.465 359.45-143.02 402.54v11.367h143.49l48.777-232.05h89.508l19.891-58.25h-97.082l23.68-111.77c26.992 5.6836 53.043 10.891 75.773 10.891 27.941 0 53.988-8.5234 68.195-73.406-17.051 6.1602-35.52 8.0547-55.887 8.0547z" fill="#68b3b0"/>
</svg>
