<?xml version="1.0" encoding="UTF-8"?>
<svg width="752pt" height="752pt" version="1.1" viewBox="0 0 752 752" xmlns="http://www.w3.org/2000/svg">
 <defs>
  <clipPath id="h">
   <path d="m477 477h135.79v135.79h-135.79z"/>
  </clipPath>
  <clipPath id="g">
   <path d="m139.21 139.21h135.79v135.79h-135.79z"/>
  </clipPath>
  <clipPath id="f">
   <path d="m477 139.21h135.79v135.79h-135.79z"/>
  </clipPath>
  <clipPath id="e">
   <path d="m139.21 477h135.79v135.79h-135.79z"/>
  </clipPath>
  <clipPath id="d">
   <path d="m139.21 308h135.79v136h-135.79z"/>
  </clipPath>
  <clipPath id="c">
   <path d="m477 308h135.79v136h-135.79z"/>
  </clipPath>
  <clipPath id="b">
   <path d="m308 477h136v135.79h-136z"/>
  </clipPath>
  <clipPath id="a">
   <path d="m308 139.21h136v135.79h-136z"/>
  </clipPath>
 </defs>
 <g clip-path="url(#h)">
  <path d="m506.9 612.79c-7.7812-1.6406-14.91-5.5273-20.504-11.176-5.8984-6.6602-9.0469-15.309-8.8086-24.203v-64.645 0.003907c-0.38672-6.5508 1.2188-13.059 4.5977-18.68s8.3789-10.086 14.344-12.816c5.3047-2.3203 11.023-3.543 16.812-3.5977 20.887-0.42578 41.816 0 62.75 0 18.707 0 32.395 10.465 36.039 28.414 0.12891 0.35156 0.30469 0.6875 0.51953 0.99609v76.199c-0.23828 0.85156-0.51953 1.6562-0.75781 2.5117v-0.003906c-1.5234 8.1484-6.2266 15.355-13.07 20.035-5.0156 2.6641-10.203 4.9922-15.531 6.9609z" fill="#fff"/>
 </g>
 <g clip-path="url(#g)">
  <path d="m245.11 139.21c5.1797 1.7695 10.199 3.9727 15.012 6.582 9.4336 6.2891 14.836 17.098 14.207 28.414 0.1875 21.785 0.1875 43.586 0 65.402 0.30859 6.6055-1.3867 13.152-4.8711 18.773-3.4844 5.6211-8.5859 10.059-14.641 12.719-4.9609 2.1562-10.312 3.2695-15.723 3.2695-21.547 0.33203-43.098 0.23828-64.645 0-8.0938 0.3125-16.035-2.2852-22.379-7.3242s-10.668-12.188-12.191-20.145c-0.1875-0.60938-0.41016-1.2109-0.66406-1.7969v-76.391c0-0.71094 0.51953-1.4219 0.71094-2.1328 1.4336-8.293 6.168-15.656 13.117-20.41 5.0586-2.6797 10.297-5.0078 15.676-6.9609z" fill="#fff"/>
 </g>
 <g clip-path="url(#f)">
  <path d="m612.79 245.11c-1.793 5.1914-4.0117 10.23-6.6328 15.059-6.2812 9.4414-17.094 14.848-28.414 14.207-21.785 0.1875-43.586 0.1875-65.402 0-6.4102 0.33594-12.773-1.2539-18.277-4.5586-5.5-3.3086-9.8867-8.1875-12.598-14.008-2.4258-5.2266-3.7305-10.906-3.8359-16.668-0.42578-21.547-0.28516-43.098 0-64.645-0.34375-8.1836 2.293-16.211 7.4258-22.598 5.1289-6.3828 12.402-10.688 20.469-12.117 0.47266-0.14844 0.92969-0.33984 1.3711-0.56641h76.391c0.57031 0.24219 1.1562 0.44922 1.75 0.61719 8.3281 1.2969 15.754 5.9531 20.555 12.879 2.7695 5.1641 5.1758 10.512 7.1992 16.008z" fill="#fff"/>
 </g>
 <g clip-path="url(#e)">
  <path d="m139.21 506.9c1.6797-5.1016 3.8047-10.043 6.3477-14.773 6.3047-9.5977 17.227-15.133 28.699-14.539h65.402-0.003906c6.4141-0.33594 12.777 1.25 18.277 4.5586 5.5039 3.3086 9.8906 8.1836 12.602 14.004 2.4258 5.2305 3.7305 10.906 3.8359 16.672 0.42578 21.547 0.28516 43.098 0 64.645v-0.003906c0.36328 8.2148-2.2773 16.277-7.4297 22.684s-12.461 10.719-20.559 12.125c-0.47656 0.14844-0.93359 0.33984-1.375 0.57031h-76.293c-0.57031-0.24219-1.1562-0.44922-1.7539-0.61719-8.4492-1.3555-15.973-6.1367-20.789-13.211-2.7031-5.0625-5.0273-10.32-6.9609-15.723z" fill="#fff"/>
 </g>
 <g clip-path="url(#d)">
  <path d="m139.21 337.41c1.9805-5.3711 4.4023-10.566 7.2461-15.535 5.5391-8.3984 14.992-13.383 25.051-13.215h69.57c8.9688 0.10156 17.523 3.7891 23.754 10.238 6.2266 6.4531 9.6133 15.133 9.3984 24.098 0 22.07 0.28516 44.137 0 66.301 0.29297 8.9805-3.0664 17.695-9.3164 24.148-6.25 6.457-14.852 10.098-23.836 10.094-22.828 0.51953-45.652 0.47266-68.434 0-16.859-0.33203-28.414-10.23-32.723-26.711 0-0.71094-0.47266-1.375-0.75781-2.082 0.03125-25.828 0.046876-51.605 0.046876-77.336z" fill="#fff"/>
 </g>
 <g clip-path="url(#c)">
  <path d="m612.79 414.6c-1.8945 5.2773-4.2383 10.379-7.0117 15.25-5.5703 8.5156-15.113 13.59-25.289 13.449-23.301 0-46.648 0.56641-69.949 0h0.003906c-9 0.085937-17.645-3.5234-23.91-9.9883-6.2656-6.4609-9.6055-15.211-9.2422-24.203-0.28516-22.07 0-44.137 0-66.301-0.21484-8.9688 3.168-17.645 9.3984-24.098s14.785-10.141 23.754-10.238c22.828 0 45.652-0.37891 68.434 0h-0.003907c7.7734-0.042969 15.312 2.6484 21.301 7.5977 5.9922 4.9531 10.051 11.852 11.473 19.492 0.17969 0.58203 0.40234 1.1523 0.66406 1.7031v77.336z" fill="#fff"/>
 </g>
 <g clip-path="url(#b)">
  <path d="m337.41 612.79c-5.5742-2.125-10.961-4.707-16.102-7.7188-7.8594-5.3125-12.551-14.195-12.504-23.68-0.42578-15.961-0.28516-32.535-0.33203-49.113v-21.547c0.11328-8.9648 3.8047-17.512 10.254-23.738 6.4453-6.2266 15.117-9.6133 24.082-9.4102h66.301c8.9609-0.21875 17.633 3.168 24.078 9.3984 6.4453 6.2305 10.121 14.789 10.207 23.75 0 23.062 0.42578 46.125 0 69.191-0.37891 16.812-10.609 28.414-27.043 32.395l0.003906-0.003906c-0.58594 0.17969-1.1562 0.40234-1.707 0.66406h-77.238z" fill="#fff"/>
 </g>
 <g clip-path="url(#a)">
  <path d="m413.89 139.21c6.1797 1.2617 12.012 3.8438 17.098 7.5781 7.375 5.5312 11.879 14.086 12.266 23.301 0.42578 18.941 0.28516 37.555 0.33203 56.309v14.207c0.003907 9.1328-3.6992 17.879-10.258 24.234-6.5625 6.3555-15.422 9.7773-24.551 9.4844h-65.402c-19.844 0-34.051-13.449-34.523-33.152-0.61719-23.062-0.51953-46.125 0-69.191 0.23828-16.527 10.324-28.035 26.898-32.105 0.56641-0.18359 1.1211-0.40625 1.6602-0.66406z" fill="#fff"/>
 </g>
 <path d="m443.3 376c0 12.078 0.42578 24.199 0 36.277-0.25781 8.1055-3.5859 15.805-9.3125 21.547-5.7227 5.7422-13.414 9.0938-21.516 9.3789-24.309 0.56641-48.621 0.56641-72.93 0h-0.003906c-8.0469-0.27344-15.691-3.5938-21.379-9.293-5.6914-5.6992-9-13.348-9.2617-21.395-0.53516-24.309-0.53516-48.621 0-72.93v-0.003907c0.25-8.043 3.5469-15.691 9.2305-21.391 5.6836-5.6992 13.32-9.0234 21.363-9.2969 24.438-0.56641 48.875-0.56641 73.309 0 7.9609 0.37109 15.492 3.6953 21.125 9.3281 5.6328 5.6328 8.957 13.168 9.3281 21.125 0.51953 12.219 0 24.438 0 36.656z" fill="#fff"/>
</svg>
