<?xml version="1.0" encoding="UTF-8"?>
<svg width="752pt" height="752pt" version="1.1" viewBox="0 0 752 752" xmlns="http://www.w3.org/2000/svg">
 <path d="m561.88 212.02c-23.074-31.754-59.441-51.172-98.664-52.684-32.387 1.3633-63.258 14.078-87.219 35.91-23.953-22.02-54.91-34.879-87.414-36.305-39.293 1.6055-75.668 21.176-98.664 53.078-44.988 56.039-39.465 153.32 10.852 231.46l0.003906 0.003906c37.855 55.715 86.418 103.34 142.86 140.1 9.582 6.2031 20.75 9.5039 32.164 9.5039 11.414 0 22.582-3.3008 32.164-9.5039 56.488-36.703 105.06-84.336 142.86-140.1 51.5-78.141 56.039-175.43 11.051-231.46zm-67.484 183.71h-33.746c-7.0039-0.042969-13.465-3.7969-16.969-9.8672l-8.4844-14.207-42.031 73.406c-1.7383 3.0117-4.2422 5.5078-7.2539 7.2422-3.0156 1.7305-6.4375 2.6367-9.9141 2.6211h-2.3672c-3.8555-0.47266-7.4805-2.0742-10.43-4.6016s-5.0859-5.8672-6.1445-9.6055l-24.668-86.426-13.418 29.797v-0.003906c-1.5547 3.4648-4.0781 6.4023-7.2617 8.4688-3.1836 2.0664-6.8984 3.168-10.691 3.1758h-43.414c-7.0508 0-13.562-3.7617-17.09-9.8672-3.5234-6.1055-3.5234-13.625 0-19.73 3.5273-6.1055 10.039-9.8672 17.09-9.8672h30.586l30.387-67.289c2.0352-5.3164 6.2695-9.4961 11.609-11.461 5.3398-1.9688 11.273-1.5352 16.27 1.1914 4.9961 2.7266 8.5742 7.4766 9.8125 13.031l26.641 93.137 35.914-62.551h-0.003907c1.7383-3.0117 4.2422-5.5078 7.2578-7.2422 3.0156-1.7305 6.4336-2.6367 9.9102-2.625 7.0078 0.042968 13.465 3.8008 16.969 9.8672l19.734 33.941h21.707c7.0469 0 13.562 3.7617 17.086 9.8672 3.5273 6.1055 3.5273 13.625 0 19.73-3.5234 6.1055-10.039 9.8672-17.086 9.8672z" fill="#68b3b0"/>
</svg>
