<?xml version="1.0" encoding="UTF-8"?>
<svg width="752pt" height="752pt" version="1.1" viewBox="0 0 752 752" xmlns="http://www.w3.org/2000/svg">
 <path d="m376 555.15c-6.6602 0-12.652-2.668-17.312-7.3281l-163.83-163.16c-20.641-21.312-31.965-48.613-31.965-77.922 0-29.305 11.324-57.273 31.965-77.918 21.312-20.645 48.617-31.965 77.918-31.965 29.301 0 57.273 11.324 77.918 31.965l25.309 25.309 25.309-25.309c20.645-20.645 48.617-31.965 77.918-31.965 29.301 0 57.273 11.324 77.918 31.965 20.645 20.645 31.969 48.621 31.969 77.918 0 29.301-11.324 57.273-31.965 77.918l-163.83 163.83c-4.6602 3.9961-10.656 6.6602-17.316 6.6602zm-103.23-334.32c-22.641 0-44.621 8.6562-60.605 25.309-15.984 16.652-25.309 37.961-25.309 60.605 0 22.641 8.6562 44.621 25.309 60.605l163.83 163.83 163.83-163.83c33.297-33.297 33.297-87.906 0-121.21-15.984-15.984-37.961-25.309-60.605-25.309-22.641 0-44.621 8.6562-60.602 25.309l-33.965 33.965c-4.6602 4.6602-12.652 4.6602-17.312 0l-33.969-33.965c-15.984-16.648-37.961-25.309-60.605-25.309z" fill="#68b3b0"/>
</svg>
