<?xml version="1.0" encoding="UTF-8"?>
<svg width="752pt" height="752pt" version="1.1" viewBox="0 0 752 752" xmlns="http://www.w3.org/2000/svg">
 <g fill="#68b3b0">
  <path d="m557.38 354.69-181.38-135.45-181.38 135.45c-6.6289 4.7344-10.418 12.785-10.418 21.312v183.28c0 14.68 11.84 26.52 26.52 26.52l136.86-0.003906h0.94531 1.4219c0.47266 0 0.94531-0.47266 1.4219-0.47266 0.47266 0 0.47266 0 0.94531-0.47266 0.47266 0 0.94531-0.47266 1.4219-0.94531 0.47266 0 0.47266-0.47266 0.94531-0.47266 0.47266-0.47266 0.94531-0.47266 1.4219-0.94531 0.47266 0 0.47266-0.47266 0.94531-0.47266 0.47266-0.47266 0.94531-0.94531 1.4219-1.4219 0-0.47266 0.47266-0.47266 0.47266-0.94531 0.47266-0.47266 0.47266-0.94531 0.94531-1.4219 0-0.47266 0.47266-0.47266 0.47266-0.94531 0.47266-0.47266 0.47266-1.4219 0.47266-1.8945v-0.47266c0-0.47266 0-1.4219 0.47266-1.8945v-0.94531-0.47266-1.4219-0.94531c0-0.47266-0.47266-0.94531-0.47266-1.8945 0-0.47266 0-0.47266-0.47266-0.94531 0-0.47266-0.47266-0.94531-0.94531-1.4219 0-0.47266-0.47266-0.47266-0.47266-0.94531-0.47266-0.47266-0.47266-0.94531-0.94531-1.4219 0-0.47266-0.47266-0.47266-0.47266-0.94531 0-0.48828-0.47266-0.96094-0.94531-0.96094l-0.94531-0.94531c-0.47266-0.47266-0.94531-0.47266-1.4219-0.94531-0.47266 0-0.47266-0.47266-0.94531-0.47266-0.47266-0.47266-0.94531-0.47266-1.4219-0.47266-0.47266 0-0.47266 0-0.94531-0.47266-43.574-10.898-76.727-54.941-76.727-101.83 0-56.355 45.465-101.82 101.82-101.82s101.82 45.465 101.82 101.82c0 47.359-33.152 91.402-76.719 102.29-0.47266 0-0.47266 0-0.94531 0.47266-0.47266 0-0.94531 0.47266-1.4219 0.47266-0.47266 0-0.94531 0.47266-0.94531 0.47266-0.47266 0.47266-0.94531 0.47266-1.4219 0.94531-0.47266 0.47266-0.94531 0.47266-0.94531 0.94531-0.47266 0.47266-0.47266 0.47266-0.94531 0.94531-0.47266 0.47266-0.47266 0.47266-0.94531 0.94531-0.47266 0.47266-0.47266 0.94531-0.94531 0.94531 0 0.47266-0.47266 0.94531-0.47266 0.94531 0 0.47266-0.47266 0.94531-0.47266 1.4219 0 0.47266-0.47266 0.94531-0.47266 1.4219 0 0.47266-0.47266 0.94531-0.47266 1.4219v1.4219 0.94531 0.47266 1.4219 1.4219 0.47266c0 0.47266 0.47266 0.94531 0.47266 1.4219 0 0.47266 0 0.47266 0.47266 0.94531 0.47266 0.94531 0.94531 1.4219 1.4219 2.3672v0.47266c0.47266 0.47266 0.94531 0.94531 1.4219 1.8945l0.47266 0.47266c0.47266 0.47266 0.94531 0.94531 1.4219 0.94531 0.47266 0 0.47266 0.47266 0.94531 0.47266 0.47266 0.47266 0.94531 0.47266 1.4219 0.94531 0.47266 0 0.47266 0.47266 0.94531 0.47266s0.94531 0.47266 1.4219 0.47266h0.94531c0.94531 0 1.8945 0.47266 2.8398 0.47266h136.86c14.68 0 26.52-11.84 26.52-26.52l-0.007812-184.2c-0.47266-8.0508-4.2617-16.102-10.891-21.309zm-17.996 202.22h-79.09c28.414-25.102 45.938-62.039 45.938-101.82 0-71.984-58.25-130.23-130.23-130.23s-130.23 58.25-130.23 130.23c0 39.781 17.996 76.719 45.938 101.82h-79.086v-179.96l163.38-122.18 163.39 122.18z"/>
  <path d="m593.85 326.75-217.85-162.91-217.85 162.91c-6.1562 4.7344-7.5781 13.734-2.8398 19.891 4.7344 6.1562 13.734 7.5781 19.891 2.8398l200.8-150.12 200.8 150.12c2.3672 1.8945 5.6836 2.8398 8.5234 2.8398 4.2617 0 8.5234-1.8945 11.367-5.6836 4.7383-6.1523 3.3164-15.152-2.8398-19.887z"/>
  <path d="m390.21 471.66h49.254c8.0508 0 14.207-6.1562 14.207-14.207s-6.1562-14.207-14.207-14.207h-49.254v-49.254c0-8.0508-6.1562-14.207-14.207-14.207s-14.207 6.1562-14.207 14.207v49.254h-49.25c-8.0508 0-14.207 6.1562-14.207 14.207s6.1562 14.207 14.207 14.207h49.25v49.254c0 8.0508 6.1562 14.207 14.207 14.207s14.207-6.1562 14.207-14.207z"/>
 </g>
</svg>
