<?xml version="1.0" encoding="UTF-8"?>
<svg width="752pt" height="752pt" version="1.1" viewBox="0 0 752 752" xmlns="http://www.w3.org/2000/svg">
 <g fill="#68b3b0">
  <path d="m522.81 560.7h-293.62c-21.047 0-37.887-16.84-37.887-37.887v-293.62c0-21.047 16.84-37.887 37.887-37.887h294.14c21.047 0 37.887 16.84 37.887 37.887v294.14c-0.52344 20.523-17.363 37.363-38.41 37.363zm-293.62-358.87c-15.262 0-27.363 12.102-27.363 27.363v294.14c0 15.262 12.102 27.363 27.363 27.363h294.14c15.262 0 27.363-12.102 27.363-27.363v-294.14c0-15.262-12.102-27.363-27.363-27.363z"/>
  <path d="m376 505.45c-71.562 0-129.45-57.883-129.45-129.45s57.883-129.45 129.45-129.45 129.45 57.883 129.45 129.45c0 71.566-57.879 129.45-129.45 129.45zm0-248.37c-65.773 0-118.92 53.145-118.92 118.92s53.148 118.92 118.92 118.92c65.777 0 118.92-53.145 118.92-118.92 0-65.773-53.145-118.92-118.92-118.92z"/>
  <path d="m376 472.82c-53.145 0-96.82-43.148-96.82-96.82 0-53.676 43.676-96.824 96.82-96.824 53.148 0 96.824 43.676 96.824 96.82 0 53.148-43.676 96.824-96.824 96.824zm0-183.12c-47.359 0-86.297 38.414-86.297 86.297 0 47.887 38.941 86.297 86.297 86.297 47.359 0 86.297-38.938 86.297-86.297 0-47.355-38.938-86.297-86.297-86.297z"/>
  <path d="m503.87 282.86c-17.891 0-32.098-14.207-32.098-32.098s14.207-32.098 32.098-32.098c17.891 0 32.098 14.207 32.098 32.098 0 17.363-14.207 32.098-32.098 32.098zm0-53.672c-12.102 0-21.574 9.4727-21.574 21.574s9.4727 21.574 21.574 21.574c12.102 0 21.574-9.4727 21.574-21.574s-9.4688-21.574-21.574-21.574z"/>
 </g>
</svg>
