<?xml version="1.0" encoding="UTF-8"?>
<svg width="752pt" height="752pt" version="1.1" viewBox="0 0 752 752" xmlns="http://www.w3.org/2000/svg">
 <path d="m264.71 331.4h-56.043c-9.1406 0-16.574 7.4336-16.574 16.574v56.043c0 9.1406 7.4336 16.574 16.574 16.574l56.043 0.003906c9.1406 0 16.574-7.4336 16.574-16.574v-56.043c0-9.1406-7.4336-16.578-16.574-16.578zm2.3672 72.621c0 1.3086-1.0664 2.3672-2.3672 2.3672h-56.043c-1.3008 0-2.3672-1.0625-2.3672-2.3672l-0.003906-56.043c0-1.3086 1.0664-2.3672 2.3672-2.3672h56.047c1.3008 0 2.3672 1.0625 2.3672 2.3672zm285.73-35.125h-236c-3.9219 0-7.1055 3.1758-7.1055 7.1055 0 3.9258 3.1836 7.1055 7.1055 7.1055h236c3.9219 0 7.1055-3.1758 7.1055-7.1055-0.003906-3.9297-3.1836-7.1055-7.1055-7.1055zm-288.1 104.58h-56.043c-9.1406 0-16.574 7.4336-16.574 16.574v56.043c0 9.1406 7.4336 16.574 16.574 16.574h56.043c9.1406 0 16.574-7.4336 16.574-16.574v-56.043c0-9.1406-7.4336-16.574-16.574-16.574zm2.3672 72.617c0 1.3086-1.0664 2.3672-2.3672 2.3672h-56.043c-1.3008 0-2.3672-1.0625-2.3672-2.3672l-0.003906-56.043c0-1.3086 1.0664-2.3672 2.3672-2.3672h56.047c1.3008 0 2.3672 1.0625 2.3672 2.3672zm285.73-35.125h-236c-3.9219 0-7.1055 3.1758-7.1055 7.1055 0 3.9258 3.1836 7.1055 7.1055 7.1055h236c3.9219 0 7.1055-3.1758 7.1055-7.1055-0.003906-3.9297-3.1836-7.1055-7.1055-7.1055zm-288.1-321.64h-56.043c-9.1406 0-16.574 7.4336-16.574 16.574v56.043c0 9.1406 7.4336 16.574 16.574 16.574l56.043 0.003907c9.1406 0 16.574-7.4336 16.574-16.574v-56.043c0-9.1406-7.4336-16.578-16.574-16.578zm2.3672 72.621c0 1.3086-1.0664 2.3672-2.3672 2.3672h-56.043c-1.3008 0-2.3672-1.0625-2.3672-2.3672l-0.003906-56.043c0-1.3086 1.0664-2.3672 2.3672-2.3672h56.047c1.3008 0 2.3672 1.0625 2.3672 2.3672zm49.727-20.918h236c3.9219 0 7.1055-3.1758 7.1055-7.1055 0-3.9258-3.1836-7.1055-7.1055-7.1055l-236 0.003907c-3.9219 0-7.1055 3.1758-7.1055 7.1055 0 3.9219 3.1836 7.1016 7.1055 7.1016z" fill="#fff"/>
</svg>
