<?xml version="1.0" encoding="UTF-8"?>
<svg width="752pt" height="752pt" version="1.1" viewBox="0 0 752 752" xmlns="http://www.w3.org/2000/svg">
 <path d="m376 148.73c20.762-0.085937 41.332 3.918 60.543 11.789 19.152 7.832 36.551 19.402 51.188 34.031 60.23 60.25 52.891 130.62 20.555 195.67-11.672 22.902-25.426 44.68-41.098 65.055h1.9062c4.2852 0 8.4414 1.4648 11.785 4.1484 3.3398 2.6875 5.6602 6.4336 6.582 10.621l34.723 108.75c1.8008 5.6875 0.78516 11.891-2.7344 16.703-3.5195 4.8164-9.1211 7.6641-15.086 7.6719v0.078125h-256.69c-6.3125 0.003906-12.207-3.1641-15.691-8.4297s-4.0938-11.93-1.6211-17.738l34.695-108.66h-0.003906c1.1992-3.7891 3.5742-7.0977 6.7773-9.4453 3.207-2.3477 7.0742-3.6172 11.047-3.6211v-0.078125h1.9062c-15.672-20.375-29.43-42.152-41.098-65.055-32.336-65.047-39.68-135.45 20.551-195.67l0.003907 0.003907c14.645-14.633 32.055-26.199 51.219-34.031 19.207-7.8711 39.781-11.875 60.539-11.789zm18.797 231.34v-55.027h55.043c6.6406-0.10938 12.734-3.7148 16.023-9.4844 3.2891-5.7734 3.2891-12.852 0-18.625-3.2891-5.7695-9.3828-9.375-16.023-9.4844h-55.043v-55.055c-0.10938-6.6406-3.7148-12.734-9.4883-16.023-5.7695-3.2891-12.848-3.2891-18.621 0-5.7695 3.2891-9.3789 9.3828-9.4883 16.023v55.055h-55.035c-6.6445 0.10938-12.734 3.7148-16.023 9.4844-3.2891 5.7734-3.2891 12.852 0 18.625 3.2891 5.7695 9.3789 9.375 16.023 9.4844h55.047v55.027c-0.082032 5.0391 1.8594 9.9023 5.3945 13.496 3.5352 3.5898 8.3633 5.6133 13.402 5.6133 5.043 0 9.8711-2.0234 13.402-5.6133 3.5352-3.5938 5.4805-8.457 5.3984-13.496zm41.574 112.78c-16.652 18.922-33.102 35.754-47.156 49.691-3.5078 3.4961-8.2617 5.457-13.215 5.457s-9.7031-1.9609-13.215-5.457c-14.043-13.938-30.504-30.766-47.156-49.691l-19.066 0.003907-23.246 72.82 205.38-0.003906-23.25-72.797zm-14.074-297.7v0.003906c-29.699-11.996-62.895-11.996-92.59 0-14.547 5.9883-27.754 14.82-38.852 25.969-45.656 45.656-39.168 100.87-13.504 152.5 24.355 49.004 65.625 95.336 98.648 129.06 33.023-33.723 74.297-80.055 98.652-129.05 25.664-51.629 32.152-106.84-13.504-152.5v0.003907c-11.098-11.148-24.309-19.969-38.852-25.957z" fill="#68b3b0" fill-rule="evenodd"/>
</svg>
