<?xml version="1.0" encoding="UTF-8"?>
<svg width="752pt" height="752pt" version="1.1" viewBox="0 0 752 752" xmlns="http://www.w3.org/2000/svg">
 <g fill="#68b3b0">
  <path d="m386.47 264.05c0.10938-6.6484 0.42188-14.207 0.33984-21.766 0-0.20312-0.003906-0.41016 0.015625-0.61719 0.09375-1.0117 0.24219-1.1875 1.2695-1.0078 1.2734 0.22266 2.5469 0.35156 3.8359 0.28906 2.9258-0.14844 5.5742-1.0664 7.6758-3.1445 1.5547-1.5352 2.5781-3.4648 3.4609-5.4414 1.3516-3.0039 2.6445-6.0273 3.9414-9.0547 1.8984-4.4297 4.3047-8.5547 7.6133-12.078 2.5664-2.7266 5.5898-4.8594 9.1367-6.1484 2.1094-0.76562 4.2617-0.51172 6.3867-0.050781 4.1484 0.89453 8.0508 2.5 11.883 4.2734 8.875 4.1016 17.438 8.832 26.211 13.121 7.5391 3.6875 15.203 7.0703 23.211 9.6172 5.5547 1.7656 11.219 3.1406 17.023 3.5508 6.75 0.48438 13.473 0.20312 19.945-2.1602 2.8555-1.043 5.7578-1.8906 8.8008-2.2461 1.1133-0.13281 2.1602-0.015625 3.1875 0.33203 1.0117 0.33984 1.375 0.90625 1.3867 1.9766 0.015625 0.95312-0.30469 1.8203-0.69922 2.6602-1.0898 2.3125-2.6562 4.3008-4.4844 6.0391-3.6523 3.4766-7.8086 6.1914-12.602 7.8672-2.832 0.99609-5.7305 1.625-8.7383 1.7305-1.4883 0.050782-1.6523 0.1875-1.4023 1.6133 0.25391 1.457-0.38672 2.3828-1.5625 3.0391-1.7422 0.97656-3.6758 1.2891-5.6211 1.5078-5.3477 0.60547-10.555-0.14844-15.684-1.6289-0.24609-0.070312-0.49609-0.13281-0.74219-0.20312-0.625-0.17188-1.0078 0.0625-1.1094 0.69531-0.070313 0.45312-0.097657 0.91797-0.15234 1.3789-0.53516 4.7812-2.9375 7.0156-6.9961 7.8125-2.8633 0.5625-5.6328 0.0625-8.4062-0.49219-1.1094-0.22266-2.1914-0.55469-3.2812-0.86328-1.8672-0.53125-1.8594-0.53906-2.6836 1.1445-0.5625 1.1562-1.1328 2.3047-1.9336 3.3281-1.9609 2.5039-4.5312 3.7734-7.6875 3.9766-3.1289 0.19922-6.1406-0.38281-9.1133-1.3008-1.1797-0.36328-2.3594-0.73438-3.5469-1.0625-1.5352-0.42578-1.5352-0.40625-2.2734 0.96094-0.24609 0.44922-0.49609 0.89844-0.77734 1.332-1.9805 3.0391-4.9336 4.0859-8.3711 3.9023-4.2539-0.22656-8.0898-1.832-11.773-3.8594-0.35938-0.19922-0.71094-0.41797-1.0742-0.60937-2.1406-1.1602-2.1641-1.168-4 0.50781-0.98828 0.89844-1.918 1.8672-2.9023 2.7695-2.8281 2.5859-6.2227 3.2539-9.9062 2.8242-5.7578-0.67188-11.223-2.5156-16.703-4.2969-0.91797-0.29688-1.1211-0.91016-1.1133-1.7656 0.027344-2.5039 0.015625-5.0234 0.015625-8.4531z"/>
  <path d="m365.51 267.66c0 2.0234-0.023438 3.5156 0.007812 5.0039 0.019531 0.83984-0.32031 1.3242-1.1289 1.6055-5.457 1.8672-10.941 3.6172-16.695 4.3242-4.0664 0.49609-7.6484-0.51172-10.578-3.4922-0.79688-0.80469-1.6055-1.5977-2.4336-2.3672-1.4336-1.332-1.6992-1.4023-3.3711-0.44531-2.1914 1.2539-4.4414 2.3672-6.8047 3.2695-2.1836 0.83203-4.4453 1.3828-6.7617 1.4297-3.7852 0.074219-6.7852-1.4023-8.6211-4.8867-0.9375-1.7852-0.95703-1.7773-2.9453-1.1992-1.7305 0.50391-3.4531 1.0195-5.1875 1.4961-1.9414 0.53516-3.9258 0.73047-5.9492 0.75391-4.5977 0.050781-7.832-2.0664-9.9961-6.0078-0.29688-0.53906-0.55078-1.1016-0.81641-1.6641-0.62891-1.3359-0.625-1.3359-2.1016-0.9375-1.2422 0.33594-2.4688 0.73438-3.7266 0.98828-2.6719 0.53906-5.3359 1.0508-8.0977 0.53516-4.5625-0.84766-6.9336-3.4102-7.3008-8.043-0.17578-2.2109-0.19531-2.2461-2.2539-1.6016-3.7109 1.1562-7.5391 1.6484-11.395 1.7773-2.7148 0.089844-5.4492-0.14844-8.0586-1.0625-0.57812-0.20312-1.1602-0.4375-1.6914-0.74219-1.1133-0.65234-1.6914-1.543-1.4219-2.9453 0.26953-1.4102 0.050781-1.5781-1.4141-1.6484-7.4297-0.35547-13.828-3.25-19.496-7.9414-2.1562-1.7852-4.0391-3.8086-5.5273-6.1797-0.66016-1.0508-1.2305-2.1484-1.457-3.3828-0.31641-1.7109 0.22656-2.4609 1.8789-2.9492 1.6133-0.46875 3.1719-0.066406 4.7305 0.17969 1.9844 0.3125 3.9023 0.92187 5.793 1.6055 5.0352 1.8242 10.219 2.5938 15.574 2.6328 7.5547 0.058593 14.816-1.4102 21.973-3.6211 7.4414-2.2969 14.598-5.3125 21.562-8.7695 7.6016-3.7695 15.125-7.6992 22.73-11.465 4.5625-2.2578 9.1406-4.5 14.027-6.0039 2.0234-0.625 4.0742-1.1016 6.1758-1.2969 2.125-0.19531 4.0547 0.53125 5.8945 1.5078 4.9141 2.6055 8.5391 6.5156 11.359 11.246 2.4062 4.0391 4.125 8.3906 5.9609 12.695 0.84766 1.9883 1.7852 3.9297 2.9258 5.7773 2.0781 3.3594 5.2383 4.8008 9.0273 5.0977 1.1211 0.085937 2.2539 0.03125 3.3828-0.17188 1.3633-0.24609 1.6055-0.042968 1.793 1.3633 0.089844 0.66016 0.097656 1.332 0.10547 2 0.027344 5.3008 0.050781 10.598 0.070312 15.898 0.007813 2.7266 0.43359 5.4336 0.25781 7.6367z"/>
  <path d="m339.33 294.98c2.0781-0.15625 4.3281 0.10547 6.5781 0.33203 1.2422 0.12891 2.4219 0.54297 3.4766 1.2031 3.6094 2.2461 6.5078 5.1758 8.4531 8.9883 0.070312 0.13672 0.13672 0.28125 0.19922 0.41797 1.2891 2.8477 0.92188 3.9336-1.8281 5.3281-4.4414 2.25-9.1875 2.8828-14.094 2.5273-1.2305-0.089844-2.4141-0.49219-3.5273-1.0664-1.9219-0.98438-3.8789-1.9102-5.7812-2.9297-3.0977-1.6641-6.4375-2.4023-9.8984-2.707-3.6406-0.32031-7.2891-0.37891-10.941-0.34766-1.1953 0.007813-2.3633 0.17578-3.5078 0.46484-4.1445 1.043-5.8906 5.1797-3.7969 8.9453 0.71094 1.2773 1.6992 2.3164 2.8477 3.2109 3.7227 2.9258 7.9414 4.9336 12.312 6.6445 8.6328 3.3672 17.609 5.3125 26.789 6.3633 4.4961 0.51172 8.9961 0.80859 13.527 0.92969 8.5273 0.22266 17.051 0.625 25.441 2.3945 8.8906 1.875 17.598 4.2656 25.676 8.5586 4.6914 2.4922 8.8359 5.6445 11.891 10.074 2.625 3.8047 4.0742 7.9805 3.7227 12.621-0.28906 3.8164-1.7031 7.2969-3.7539 10.508-3.2148 5.0234-7.5742 8.9141-12.383 12.332-4.4609 3.168-9.2617 5.7383-14.184 8.1094-0.92969 0.44922-1.6719 0.45313-2.5703-0.11328-2.4375-1.5391-5.0156-2.832-7.6758-3.9414-0.55469-0.23047-1.2461-0.39453-1.3203-1.1445-0.085938-0.86328-0.21875-1.7578 0.14844-2.5859 0.22656-0.50781 0.80469-0.60156 1.2773-0.79688 3.2773-1.3594 6.582-2.6562 9.7656-4.2344 3.1055-1.5391 6.0273-3.3828 8.5273-5.7812 2.9414-2.8242 5.0547-6.1523 4.9062-10.43-0.125-3.5625-1.7773-6.5117-4.168-9.0547-3.1602-3.3672-7.0859-5.6133-11.293-7.3555-4.4375-1.8359-9.0352-3.125-13.828-3.6367-1.5352-0.16406-3.0781-0.21875-4.6133-0.30859-5.8477-0.34766-11.68-0.88281-17.512-1.3516-7.7461-0.62109-15.438-1.6133-22.969-3.6289-9.0508-2.4141-17.668-5.8438-25.66-10.773-4.9805-3.0742-9.5195-6.6875-13.121-11.336-1.8711-2.4141-3.3281-5.0547-3.8711-8.1406-0.54297-3.1367 0.35938-5.7891 2.4062-8.1211 1.375-1.5664 3.0312-2.7695 4.8789-3.7266 3.9766-2.0508 8.25-3.168 12.617-3.9492 4.0508-0.72266 8.1445-1.0703 12.25-1.3086 1.9453-0.10937 3.8828-0.42187 5.8203-0.66406 2.8398-0.34375 5.707-0.62109 8.7852-0.51953z"/>
  <path d="m369.48 318.02c0-1.8008 0.058594-3.6055-0.007813-5.4023-0.31641-8.8945-0.11328-17.797-0.375-26.688-0.20703-7.0469-0.007812-14.094-0.28516-21.133-0.28516-7.25-0.03125-14.504-0.32031-21.75-0.26172-6.5312-0.03125-13.066-0.29688-19.586-0.19531-4.8359-0.21484-9.6641-0.24609-14.496-0.003906-0.85547-0.3125-1.4336-1.0039-1.9375-3.8516-2.8125-5.9023-6.668-6.2891-11.371-0.26953-3.2148 0.53906-6.2383 2.25-8.9805 2.9492-4.7305 7.3281-7.2969 12.816-7.3555 9.3242-0.09375 15.387 7.6406 15.5 14.66 0.089844 5.3711-1.957 9.5859-6.0664 12.867-0.82031 0.65234-1.1289 1.3516-1.1406 2.3555-0.13672 7.7148-0.18359 15.43-0.35547 23.141-0.17187 7.5078-0.03125 15.023-0.3125 22.52-0.26172 6.9414-0.007812 13.891-0.28906 20.824-0.3125 7.6641-0.023438 15.328-0.32031 22.984-0.28516 7.3555-0.082032 14.711-0.28906 22.059-0.085937 3.082-0.20312 6.168-0.24609 9.25-0.019531 1.3203-0.32031 1.6094-1.5742 1.3984-3.1445-0.53516-6.3242-0.76172-9.4844-1.1328-1.4023-0.16016-1.5625-0.28906-1.5742-1.7344-0.027344-3.5-0.007813-6.9961-0.007813-10.496-0.035156 0.003906-0.058594 0.003906-0.082031 0.003906z"/>
  <path d="m358.38 350.67c-0.38281 0.67578-0.95312 0.67578-1.4023 0.84375-4.1484 1.5469-7.9766 3.6289-10.949 6.9805-3.2969 3.7227-4.8867 8.0039-3.4805 12.961 1.043 3.6719 3.3203 6.5781 6.2422 8.9883 3.5703 2.9414 7.6289 5.0117 11.863 6.8086 8.1445 3.457 16.434 6.5508 24.637 9.8711 5.8398 2.3633 11.012 5.8008 15.367 10.367 3.5742 3.7422 6.2812 8.0273 7.1836 13.23 0.89844 5.1797 0.050781 10.133-2.1133 14.891-2.8477 6.2617-7.207 11.328-12.363 15.781-1.2891 1.1094-2.6562 2.1133-3.9961 3.1484-0.66406 0.51563-1.2266 0.5625-1.9258 0.015626-0.72266-0.56641-1.5391-1.0312-2.3359-1.4961-0.73828-0.42969-1.1133-1.0039-1.0859-1.8789 0.042968-1.3867 0.058593-2.7812 0.019531-4.168-0.027344-1.0273 0.41797-1.7148 1.2109-2.3398 3.2578-2.5508 6.1328-5.4883 8.4648-8.9141 2.0273-2.9844 3.3906-6.1953 3.3047-9.9258-0.089844-3.8438-1.8086-6.918-4.3242-9.6172-3.6758-3.9453-8.2656-6.5781-13.094-8.8242-5.3711-2.5-11.043-4.2227-16.562-6.3555-8.332-3.2188-16.309-7.1211-23.477-12.527-4.3867-3.3047-8.25-7.1133-11.121-11.855-1.9805-3.2773-3.1875-6.8164-3.3203-10.637-0.11719-3.4102 0.81641-6.6367 2.457-9.6094 1.8672-3.3672 4.418-6.1758 7.4414-8.5625 0.65234-0.51562 1.2969-0.51953 2.0234-0.34766 3.3477 0.80859 6.7383 1.4414 10.148 1.918 2.4922 0.35156 4.9883 0.66016 7.5 0.82422 1.207 0.085938 2.3945 0.28125 3.6875 0.42969z"/>
  <path d="m392.61 333.3c1.6719-0.066406 3.3438-0.22266 5.0117-0.30859 5.5508-0.28906 11.055-0.96094 16.52-1.9414 7.1641-1.2891 14.121-3.2773 20.805-6.1758 3.4062-1.4766 6.6719-3.2109 9.6055-5.5234 1.0195-0.80469 1.8984-1.7305 2.6016-2.8242 1.0312-1.6016 1.2734-3.3203 0.87109-5.1719-0.42188-1.9414-1.582-3.1875-3.4258-3.832-1.3164-0.46094-2.6758-0.73438-4.0781-0.76562-4.6836-0.10547-9.3594 0.039063-14.004 0.64844-2.8906 0.38281-5.5664 1.4336-8.1328 2.7812-1.5977 0.83203-3.2031 1.6484-4.8008 2.4688-1.5859 0.80859-3.2617 1.1836-5.0469 1.2227-4.4414 0.09375-8.7109-0.58594-12.707-2.6133-2.7266-1.3828-3.1406-2.4102-1.8789-5.1797 1.9141-4.2109 5.0352-7.3516 8.9688-9.6992 2.0664-1.2344 4.4375-1.2461 6.7344-1.3672 5.5117-0.29297 10.977 0.31641 16.438 1.0469 1.8789 0.25 3.7891 0.30859 5.6797 0.46484 6.4297 0.53125 12.754 1.5625 18.746 4.1172 2.2461 0.95703 4.2773 2.2383 6.0156 3.9688 3.1914 3.1719 3.8711 6.8867 2.3633 11.059-1.0469 2.9023-2.7578 5.3906-4.8203 7.6523-4.5625 5-10.027 8.8086-15.965 11.977-6.3359 3.3828-12.98 5.9609-19.895 7.8789-0.82422 0.22656-1.5625 0.30469-2.3555-0.1875-6.3945-3.9844-13.387-6.5117-20.605-8.5117-0.88672-0.24609-1.7617-0.51172-2.6445-0.76562v-0.41797z"/>
  <path d="m383.43 495.7c0.003907-1.0781 0.089844-2.1562 0.16016-3.2344 0.066406-1.0117 0.49609-1.7305 1.2031-2.3906 1.2734-1.1992 2.4453-2.4844 3.4336-3.9492 2.0977-3.1016 2.2383-6.3125 0.69922-9.6562-0.84375-1.8359-2.0078-3.4805-3.3398-4.9805-3.6797-4.1484-7.9844-7.5508-12.637-10.543-3.8047-2.4492-7.8555-4.5-11.457-7.2695-5.1797-3.9844-9.7461-8.5273-13.148-14.16-2.7578-4.5703-4.5117-9.4414-4.4961-14.867 0.015625-4.3398 1.2461-8.3125 3.4922-11.988 2.3125-3.7852 5.3828-6.8594 8.9023-9.5195 0.68359-0.51562 1.2773-0.67188 2.1172-0.32031 2.4688 1.0234 4.9727 1.9609 7.4688 2.9258 1.3828 0.53516 1.3867 0.66797 1.5391 2.125 0.17969 1.7188-0.51172 2.7227-1.9805 3.5938-2.8008 1.668-5.2344 3.8047-7.1953 6.4414-3.3828 4.5469-3.793 9.4141-1.5742 14.562 1.0508 2.4336 2.543 4.5938 4.3203 6.5391 3.2031 3.5039 6.7383 6.6289 10.598 9.4023 3.9336 2.8164 8.0508 5.3477 12.184 7.8555 4.9297 2.9922 9.2773 6.6445 12.504 11.5 2.0938 3.1523 3.3281 6.6406 3.457 10.414 0.085938 2.5234-0.46875 5.0039-1.3672 7.3867-0.89453 2.3789-2.1875 4.5273-3.6836 6.5703-2.2344 3.0469-4.8984 5.6797-7.8203 8.0508-1.0742 0.87109-1.1406 0.78906-2.2031-0.11328-0.90625-0.76562-1.3203-1.6641-1.2031-2.8398 0.070312-0.50391 0.027343-1.0195 0.027343-1.5352z"/>
  <path d="m383.16 545.58c-0.39453-0.42969-0.33984-0.85547-0.29688-1.2539 0.39844-3.7461 0.15625-7.5 0.20312-11.254 0.039062-2.8281 0.49219-5.625 0.34766-8.4648-0.35547-6.7305-2.9062-12.336-8.2539-16.562-3.3867-2.6758-6.8438-5.2773-10.16-8.0352-4.2539-3.543-8.0547-7.5195-10.48-12.586-2.6016-5.4375-2.875-10.973-0.40625-16.547 1.9648-4.4375 5.1875-7.8633 8.8945-10.883 0.50781-0.41016 0.99609-0.49609 1.5391-0.11719 0.042969 0.027344 0.089843 0.050782 0.13281 0.082032 3.9023 2.3945 3.0977 1.2539 3.3867 5.5273 0.1875 2.8516-0.39844 5.1758-2.5156 7.1953-1.2227 1.1602-2.0273 2.7148-2.6719 4.3008-1.2891 3.1836-1.0625 6.2188 0.89844 9.0938 1.6094 2.3594 3.6055 4.3633 5.793 6.1562 4.1289 3.3906 8.4336 6.582 12.449 10.102 4.7891 4.1953 7.8633 9.4414 8.5469 15.914 1.043 9.7812-1.7148 18.602-6.7773 26.836-0.082031 0.12891-0.18359 0.25-0.29297 0.35547-0.070313 0.050782-0.17969 0.074219-0.33594 0.14062z"/>
  <path d="m381.9 361.64c-0.33984 9.3945-0.33203 18.793-0.34766 28.191 0 0.15625 0.003907 0.30859-0.007812 0.46484-0.085938 1.2734-0.33984 1.4961-1.5352 1.0469-2.8359-1.0664-5.6406-2.2109-8.4727-3.2969-0.77344-0.29688-1.1797-0.77734-1.1211-1.6211 0.007813-0.15234-0.003906-0.30859-0.003906-0.46484-0.13672-10.012-0.40234-20.023-0.32812-30.039 0.007813-1.0781 0.003907-2.1562-0.12891-3.2305-0.082031-0.65234 0.14844-1.1367 0.92188-1.0781 3.1719 0.23828 6.3555 0.27344 9.5078 0.69922 1.4492 0.19531 1.4961 0.28906 1.5078 1.7695 0.019531 2.5273 0.007813 5.0391 0.007813 7.5586z"/>
  <path d="m381.25 415.46c-0.47266 8.5664-0.15625 17.207-0.35938 25.828-0.058594 2.5156-0.17188 5.0312-0.22266 7.543-0.023438 1.2578-0.22266 1.3438-1.3359 0.68359-2.4766-1.4727-4.7773-3.207-7.1289-4.8633-0.91406-0.64453-1.1523-1.4688-1.1523-2.5156 0.007813-4.5234 0.089844-9.0508-0.0625-13.562-0.20703-6.2148-0.25-12.426-0.26953-18.645-0.003906-2.4805 0.015625-2.4961 2.3828-1.543 2.1445 0.86328 4.2422 1.832 6.3477 2.7891 1.3672 0.625 1.9844 1.5156 1.8008 2.9922-0.046875 0.41406 0 0.82812 0 1.293z"/>
  <path d="m382.51 559.69c-1.2539-0.55469-2.1172-1.4297-3.0469-2.1836-5.9492-4.8359-10.711-10.633-14.043-17.566-2.2031-4.5859-3.4844-9.4141-4.0273-14.48-0.29688-2.793-0.17188-5.5391 0.20312-8.293 0.51172-3.75 2.0781-7.0781 4.2227-10.16 0.28125-0.39844 0.45313-0.98047 1.1094-0.93359 0.47266 0.03125 1.4805 1.0117 1.5781 1.5547 0.070313 0.40234 0.070313 0.82031 0.070313 1.2266 0.003906 5.3984 0.11719 10.801-0.019531 16.195-0.17188 6.7109 1.668 12.898 4.4414 18.887 2.3633 5.1055 5.3984 9.8125 8.7617 14.312 0.30078 0.39844 0.73438 0.72656 0.75 1.4414z"/>
  <path d="m380.31 481.95c0 2.7227 0.027344 5.4492-0.007812 8.1758-0.023438 1.5898-0.13281 3.1836-0.24219 4.7695-0.066406 0.94141-0.37891 1.1016-1.1641 0.48828-2.2266-1.7422-4.3984-3.5508-6.6016-5.3164-0.66016-0.53125-0.625-1.25-0.62891-1.9688-0.007813-3.4961 0.058593-6.9961-0.046875-10.488-0.11328-3.75-0.26562-7.4961-0.24609-11.246 0-0.25391-0.007812-0.51562 0-0.77344 0.042969-1.2773 0.24219-1.3984 1.3164-0.68359 2.3555 1.5742 4.6016 3.2773 6.707 5.1797 0.70703 0.63281 1.0039 1.3555 0.99609 2.3008-0.03125 3.1875-0.015625 6.375-0.015625 9.5625h-0.066406z"/>
  <path d="m379.45 547.94c-0.625-0.074218-0.74219-0.38281-0.88672-0.64453-2.7188-4.9883-5.1211-10.098-6.1055-15.758-0.082032-0.45312-0.16406-0.91406-0.1875-1.375-0.29297-6.168-0.29688-12.336-0.3125-18.508 0-0.050781-0.003907-0.10547 0-0.15625 0.0625-0.38281-0.14063-0.90625 0.35937-1.0742 0.38281-0.13281 0.62891 0.26172 0.91016 0.47266 3.5039 2.6367 5.4102 6.2461 6.3516 10.441 0.17188 0.76172 0.17188 1.5312 0.16406 2.3008-0.019532 6.0195-0.042969 12.039-0.058594 18.059 0.003906 2.0586-0.33594 4.0938-0.23438 6.2422z"/>
  <path d="m372.78 556.38c1.1523 0.59766 1.8047 1.5469 2.6914 2.2148 1.1016 0.82812 2.1172 1.7812 3.1836 2.668 0.375 0.30859 0.66797 0.625 0.62109 1.1562-0.23047 2.8125-0.47656 5.625-1.5469 8.2812-0.34766 0.85156-0.65234 1.9023-1.7148 1.9805-1.1523 0.085937-1.3594-1.0781-1.7773-1.8594-0.46094-0.86719-0.67578-1.8242-0.87109-2.7812-0.75-3.6367-0.89062-7.3203-0.76562-11.02 0-0.15234 0.074219-0.29688 0.17969-0.64063z"/>
 </g>
</svg>
