<?xml version="1.0" encoding="UTF-8"?>
<svg width="752pt" height="752pt" version="1.1" viewBox="0 0 752 752" xmlns="http://www.w3.org/2000/svg">
 <g fill="#68b3b0">
  <path d="m516.15 528.58h-280.3c-21.641 0.12109-42.434-8.3828-57.793-23.629-15.355-15.246-24.008-35.98-24.047-57.617v-142.67c0-21.586 8.5742-42.293 23.84-57.555 15.266-15.266 35.969-23.84 57.555-23.84h280.75c21.586 0 42.289 8.5742 57.555 23.84 15.266 15.262 23.84 35.969 23.84 57.555v142.52c0 21.586-8.5742 42.289-23.84 57.555-15.266 15.266-35.969 23.84-57.555 23.84zm-280.3-275.56c-13.789-0.12109-27.055 5.2656-36.863 14.961-9.8047 9.6953-15.34 22.898-15.379 36.688v142.52c0 13.738 5.457 26.91 15.172 36.625s22.887 15.172 36.625 15.172h280.75c13.738 0 26.91-5.457 36.625-15.172s15.172-22.887 15.172-36.625v-142.52c0-13.738-5.457-26.914-15.172-36.625-9.7148-9.7148-22.887-15.172-36.625-15.172h-280.3z"/>
  <path d="m316.8 453.55v-155.1l133.2 77.547zm29.598-103.6v52.539l44.398-26.492z"/>
 </g>
</svg>
