<?xml version="1.0" encoding="UTF-8"?>
<svg width="752pt" height="752pt" version="1.1" viewBox="0 0 752 752" xmlns="http://www.w3.org/2000/svg">
 <path d="m376 168.81c-54.949 0-107.65 21.832-146.5 60.688-38.855 38.855-60.688 91.555-60.688 146.5 0 54.953 21.832 107.65 60.688 146.51 38.855 38.855 91.555 60.684 146.5 60.684 54.953 0 107.65-21.828 146.51-60.684 38.855-38.855 60.684-91.555 60.684-146.51 0-36.367-9.5703-72.098-27.758-103.59-18.184-31.496-44.34-57.652-75.836-75.84-31.496-18.184-67.227-27.758-103.6-27.758zm103.6 310.79h-207.19c-5.2891 0-10.172-2.8203-12.816-7.3984-2.6445-4.582-2.6445-10.223 0-14.801 2.6445-4.5781 7.5273-7.3984 12.816-7.3984h207.19c5.2852 0 10.172 2.8203 12.816 7.3984 2.6445 4.5781 2.6445 10.219 0 14.801-2.6445 4.5781-7.5312 7.3984-12.816 7.3984zm0-88.797h-207.19c-5.2891 0-10.172-2.8203-12.816-7.3984-2.6445-4.582-2.6445-10.223 0-14.801 2.6445-4.5781 7.5273-7.3984 12.816-7.3984h207.19c5.2852 0 10.172 2.8203 12.816 7.3984 2.6445 4.5781 2.6445 10.219 0 14.801-2.6445 4.5781-7.5312 7.3984-12.816 7.3984zm0-88.797h-207.19c-5.2891 0-10.172-2.8203-12.816-7.3984-2.6445-4.5781-2.6445-10.223 0-14.801 2.6445-4.5781 7.5273-7.3984 12.816-7.3984h207.19c5.2852 0 10.172 2.8203 12.816 7.3984 2.6445 4.5781 2.6445 10.223 0 14.801-2.6445 4.5781-7.5312 7.3984-12.816 7.3984z" fill="#68b3b0"/>
</svg>
