<?xml version="1.0" encoding="UTF-8"?>
<svg width="752pt" height="752pt" version="1.1" viewBox="0 0 752 752" xmlns="http://www.w3.org/2000/svg">
 <g fill="#68b3b0">
  <path d="m220.37 383.18 75.074-75.086-10.113-10.105-75.074 75.074c-45.906 45.914-45.906 120.34 0 166.24 1.7109 1.7188 3.5312 3.2188 5.3125 4.8047-40.914-46.156-39.398-116.72 4.8008-160.93z"/>
  <path d="m230.49 393.29c-42.641 42.637-45.438 109.75-8.8516 155.89 46.102 35.648 112.57 32.43 154.87-9.875l75.07-75.066-146.02-146.02z"/>
  <path d="m385.67 222.86c44.199-44.199 114.77-45.715 160.93-4.8008-1.582-1.7812-3.0977-3.6055-4.8008-5.3125-45.906-45.898-120.34-45.898-166.25 0l-75.074 75.086 10.109 10.109z"/>
  <path d="m551.67 224.12c-46.137-36.574-113.25-33.785-155.89 8.8477l-75.078 75.086 146.02 146.01 75.082-75.074c42.297-42.305 45.52-108.77 9.8672-154.87z"/>
 </g>
</svg>
