<?xml version="1.0" encoding="UTF-8"?>
<svg width="752pt" height="752pt" version="1.1" viewBox="0 0 752 752" xmlns="http://www.w3.org/2000/svg">
 <path d="m546.77 441.47c4.0391-4.043 9.4102-6.2695 15.102-6.2695h0.035156c5.6797 0.011719 11.004 2.2305 15.023 6.2695 4.043 4.0391 6.2656 9.3828 6.2656 15.039 0 5.707-2.2266 11.078-6.2656 15.117l-60.902 60.898c-1.0039 1.0078-2.0938 1.8984-3.25 2.6719-0.44531 0.29688-0.9375 0.49219-1.3984 0.75391-0.74219 0.42188-1.4688 0.87891-2.2539 1.207-0.53125 0.22266-1.1016 0.33203-1.6484 0.50781-0.76562 0.25-1.5195 0.54297-2.3164 0.70313-0.57031 0.11328-1.168 0.11328-1.75 0.17969-0.78516 0.089844-1.5586 0.22656-2.3594 0.23047 0.039063-0.18359 0.023437-0.375 0.058594-0.55859 0.42578-2.2344 0.69141-4.5078 0.69141-6.8242v-44.961zm-281.76-58.066h221.99v99.969l-0.003906 3.625h-221.99zm29.598-177.59c0-4.0781 3.3164-7.3984 7.3984-7.3984h147.99c4.082 0 7.3984 3.3203 7.3984 7.3984v51.797h-162.79zm-13.891 138.98c6.7266-5.3633 12.16-12.215 15.652-19.707 3.6875-7.5508 5.6367-16.047 5.6367-24.559v-28.117h147.99v28.117c0 17.348 7.7617 33.48 21.289 44.266 5.0156 4.0039 8.8945 8.8828 11.578 14.625 1.4141 2.8984 2.457 6 3.1523 9.1875h-220.02c2.0469-9.3086 7.2188-17.836 14.715-23.812zm-105.62 96.664c4.0039-4.0234 9.3281-6.2422 15.008-6.2539h0.035156c5.6953 0 11.062 2.2266 15.102 6.2695l44.973 44.965v44.961c0 2.3164 0.26562 4.5859 0.69141 6.8242 0.035156 0.18359 0.019531 0.37891 0.058593 0.5625-0.80078-0.003906-1.5781-0.14062-2.3594-0.23047-0.58203-0.066406-1.1797-0.066406-1.75-0.17969-0.79688-0.16016-1.5469-0.45312-2.3164-0.70312-0.54688-0.17578-1.1172-0.28516-1.6484-0.50781-0.78516-0.32812-1.5117-0.78516-2.2539-1.207-0.46094-0.26172-0.95703-0.45703-1.3984-0.75391-1.1562-0.77344-2.2422-1.668-3.25-2.6719l-60.902-60.898c-4.043-4.043-6.2695-9.4102-6.2695-15.121 0-5.6562 2.2266-11 6.2812-15.055zm15.918 97.34c-5.8828 0-11.477-2.3203-15.672-6.4531-4.207-4.2656-6.5273-9.8594-6.5273-15.742 0-8.0586 4.3125-15.336 11.078-19.23l41.43 41.426zm273.79 14.801h-177.59c-7.8984 0-15.254-4.25-19.57-11.719-0.085937-0.23438-0.1875-0.46484-0.30469-0.69141-1.543-3.0898-2.3203-6.3867-2.3203-9.7891v-29.598h221.99v29.598c0 3.4023-0.78125 6.6992-2.6094 10.43l-0.24609 0.41406c-0.007812 0.015625-0.019531 0.027344-0.027343 0.042969 0 0.003906 0 0.003906-0.003907 0.007812l-0.125 0.21094c-3.9375 6.8438-11.293 11.094-19.191 11.094zm111.94-21.328c-4.2695 4.2109-9.8633 6.5273-15.746 6.5273h-30.309l41.43-41.43c6.7656 3.8984 11.078 11.176 11.078 19.234 0 5.8828-2.3164 11.477-6.4531 15.668z"/>
</svg>
