<?xml version="1.0" encoding="UTF-8"?>
<svg width="752pt" height="752pt" version="1.1" viewBox="0 0 752 752" xmlns="http://www.w3.org/2000/svg">
 <g>
  <path d="m599.53 365.11c-1.8945-3.7891-6.1562-6.1562-10.418-6.1562h-27.469c-8.5234-105.61-97.082-188.96-204.59-188.96-113.66 0-206.01 92.352-206.01 206.01 0 113.66 92.348 206.01 206.01 206.01 65.355 0 127.39-31.258 165.75-83.824 5.2109-7.1055 3.7891-17.051-3.3164-21.785-7.1055-5.2109-17.051-3.7891-21.785 3.3164-32.676 44.516-85.246 71.039-140.65 71.039-96.137-0.47656-174.75-78.617-174.75-174.75s78.613-174.28 174.75-174.28c90.453 0 164.8 69.145 173.33 157.23h-25.574c-4.2617 0-8.5234 2.3672-10.418 6.1562-1.8945 3.7891-1.8945 8.5234 0.94531 12.312l42.148 60.617c2.3672 3.3164 5.6836 5.2109 9.4727 5.2109 3.7891 0 7.5781-1.8945 9.4727-5.2109l42.148-60.617c2.8398-3.7891 2.8398-8.5234 0.94531-12.312z"/>
  <path d="m349.95 313.02h15.156c10.891 0 20.363 8.0508 22.258 18.941 0.47266 2.3672 2.3672 3.7891 4.7344 3.7891h26.52c2.8398 0 5.2109-2.3672 4.7344-5.2109-2.3672-26.52-22.258-47.832-48.305-52.094v-22.73c0-2.8398-2.3672-4.7344-4.7344-4.7344h-26.047c-2.8398 0-4.7344 2.3672-4.7344 4.7344v22.73c-29.363 4.7344-51.148 31.73-48.305 62.984 2.8398 30.309 30.309 52.566 60.617 52.566h13.734c13.734 0 24.625 12.312 22.258 26.047-1.8945 10.891-12.312 18.469-23.207 18.469h-15.156c-11.367 0-20.363-8.0508-22.258-18.941-0.47266-2.3672-2.3672-3.7891-4.7344-3.7891l-26.992 0.003906c-2.8398 0-5.2109 2.3672-4.7344 5.2109 2.3672 26.52 22.258 47.832 48.305 52.094v22.73c0 2.8398 2.3672 4.7344 4.7344 4.7344h26.047c2.8398 0 4.7344-2.3672 4.7344-4.7344v-23.207c25.102-5.2109 45.938-25.102 48.305-51.148 3.3164-34.57-24.152-63.934-57.777-63.934h-16.574c-13.734 0-24.625-12.312-22.258-26.047 2.3711-10.414 12.316-18.465 23.68-18.465z"/>
 </g>
</svg>
