<?xml version="1.0" encoding="UTF-8"?>
<svg width="752pt" height="752pt" version="1.1" viewBox="0 0 752 752" xmlns="http://www.w3.org/2000/svg">
 <g fill="#68b3b0">
  <path d="m593.59 174.74h-363.2c-7.1523 0-12.945 5.793-12.945 12.945v117.38c3.3125-1.8242 6.4062-3.7539 9.418-5.625 3.7695-2.3516 7.3281-4.5625 11.109-6.5156 22.023-11.289 48.27-11.297 70.242-0.027344 3.8398 1.9805 7.3906 4.1953 11.152 6.5469 13.844 8.6289 29.523 18.406 59.379 13.418l0.13672-0.023437c8.4023-1.293 16.844 1.1562 23.152 6.7266 6.3516 5.6055 9.8359 13.676 9.582 22.145l-0.023438 0.51172c-0.30469 8.3086-1.1875 20.953-3.5938 36.43h11.957c4.7383 0 8.5781 3.8398 8.5781 8.5781 0 4.7305-3.8398 8.5703-8.5781 8.5703h-15.066c-2.4375 11.773-5.7344 24.621-10.199 38.07h198.89c7.1523 0 12.945-5.793 12.945-12.945v-233.23c0-7.1562-5.793-12.949-12.945-12.949zm-117.88 221.05h-15.926c-4.7383 0-8.5781-3.8398-8.5781-8.5703 0-4.7383 3.8398-8.5781 8.5781-8.5781h15.926c4.7383 0 8.5781 3.8398 8.5781 8.5781-0.003907 4.7305-3.8438 8.5703-8.5781 8.5703zm55.762 0h-15.934c-4.7383 0-8.5781-3.8398-8.5781-8.5703 0-4.7383 3.8398-8.5781 8.5781-8.5781h15.934c4.7383 0 8.5781 3.8398 8.5781 8.5781 0 4.7305-3.8398 8.5703-8.5781 8.5703zm7.6211-126.44c-10.641 0-19.977-5.5781-25.258-13.965-5.2812 8.3906-14.617 13.965-25.258 13.965-16.477 0-29.836-13.359-29.836-29.836 0-16.477 13.359-29.836 29.836-29.836 10.641 0 19.977 5.5781 25.258 13.957 5.2812-8.3828 14.617-13.957 25.258-13.957 16.477 0 29.836 13.359 29.836 29.836 0 16.477-13.359 29.836-29.836 29.836z"/>
  <path d="m273.12 577.26-5.9375-4.0625c-108.05-73.883-120.47-196.09-121.71-231.78-0.16406-5.2734 1.9883-10.258 5.9062-13.723 3.8984-3.4375 9.0664-4.9492 14.219-4.1562 34 5.6836 52.305-5.7266 67.004-14.891 3.5742-2.2305 6.9492-4.332 10.348-6.0859 19.098-9.7891 41.391-9.7148 60.316-0.011719 3.4219 1.7656 6.7969 3.8711 10.371 6.1016 14.699 9.1641 33.004 20.57 66.895 14.91 5.2383-0.80469 10.426 0.69141 14.328 4.1367 3.918 3.4609 6.0703 8.4492 5.9102 13.684l-0.003907 0.035156c-1.2344 35.695-13.66 157.9-121.71 231.79zm-106.43-232.28c1.957 36.941 15.773 140.73 106.43 206.66 90.629-65.91 104.47-169.66 106.43-206.66-38.996 5.2539-61.777-8.9609-77.047-18.48-3.3398-2.082-6.2266-3.8828-8.8633-5.2422-13-6.6641-28.133-6.6172-41.066 0.011719-2.6133 1.3516-5.5 3.1484-8.8398 5.2305-15.258 9.5156-38.039 23.723-77.051 18.477z"/>
  <path d="m273.12 396.57c-10.699 0-19.398 8.7031-19.398 19.398v11.363h38.801v-11.359c0-10.699-8.7031-19.402-19.402-19.402z"/>
  <path d="m273.12 438.67c-3.6484 0-6.6055 2.957-6.6055 6.6055 0 2.1797 1.0586 4.1055 2.6836 5.3086v11.27c0 2.168 1.7578 3.9219 3.9219 3.9219 2.168 0 3.9219-1.7578 3.9219-3.9219v-11.27c1.625-1.2031 2.6836-3.1289 2.6836-5.3086 0.003907-3.6484-2.957-6.6055-6.6055-6.6055z"/>
  <path d="m296.94 335.44c-3.1562-1.9766-5.8477-3.6602-8.1211-4.8398-9.9727-5.0898-21.461-5.0898-31.434 0.042969-2.2305 1.1367-4.9219 2.8203-8.0781 4.7969-13.844 8.625-35.934 22.43-71.199 21.082 4.207 43.172 22.09 125.23 95.016 181.95 72.922-56.68 90.805-138.77 95.016-181.95-35.18 1.3477-57.355-12.457-71.199-21.082zm9.082 138.72c0 1.6289-1.3203 2.9531-2.9531 2.9531h-59.887c-1.6289 0-2.9531-1.3203-2.9531-2.9531v-43.871c0-1.6289 1.3203-2.9531 2.9531-2.9531h2.1094l-0.003906-11.359c0-15.348 12.488-27.836 27.836-27.836s27.836 12.488 27.836 27.836v11.363h2.1094c1.6289 0 2.9531 1.3203 2.9531 2.9531z"/>
 </g>
</svg>
