<?xml version="1.0" encoding="UTF-8"?>
<svg width="752pt" height="752pt" version="1.1" viewBox="0 0 752 752" xmlns="http://www.w3.org/2000/svg">
 <defs>
  <clipPath id="a">
   <path d="m139.21 244h473.58v226h-473.58z"/>
  </clipPath>
 </defs>
 <path d="m339.61 447.16c12.227 13.117 9.8984 35.16-5.1992 49.23-15.094 14.074-37.246 14.852-49.473 1.7344-12.227-13.117-9.8984-35.156 5.1953-49.23 15.098-14.074 37.25-14.848 49.477-1.7344" fill="#68b3b0"/>
 <path d="m539.65 447.11c12.227 13.117 9.8711 35.184-5.2617 49.293-15.137 14.109-37.316 14.91-49.543 1.7969-12.227-13.117-9.8711-35.188 5.2656-49.293 15.133-14.109 37.312-14.914 49.539-1.7969" fill="#68b3b0"/>
 <path d="m159.84 308.2h0.37109c8.6016 0 15.633 7.0312 15.633 15.633v0.37109c0 8.6016-7.0312 15.633-15.633 15.633h-0.37109c-8.6016 0-15.633-7.0312-15.633-15.633v-0.37109c0.003906-8.6055 7.0312-15.633 15.633-15.633z" fill="#68b3b0"/>
 <g clip-path="url(#a)">
  <path d="m217.93 402.73c8.6953 0 15.723 7.0312 15.723 15.723v0.09375c0 8.6953-7.0312 15.723-15.723 15.723h-19.703c-8.6953 0-15.723 7.0312-15.723 15.723v0.18359c0 8.6953 7.0312 15.723 15.723 15.723h62.25l5.1797-12.949c10.543-19.516 31.633-33.391 54.02-33.391 28.211 0 48.281 22.105 45.969 49.949 15.723-0.09375 36.258-0.46094 52.074-0.92578 12.578 0.37109 28.117 0.64844 41.902 0.83203 5.5508-27.75 31.82-49.855 60.031-49.855 27.195 0 46.711 20.535 46.156 46.805 18.035-4.5312 33.297-19.516 37.461-37.922 2.4961-10.82 6.1953-31.91 9.25-52.539 1.0156-6.3828 0.27734-12.949-2.2188-18.871-7.6758-17.852-16.926-35.055-27.656-51.336-10.176-15.168-27.285-24.141-46.711-24.512-11.562-0.18359-23.031-0.27734-31.633-0.27734h-0.09375c-1.1094-18.59-14.613-32.836-33.668-34.594-12.395-1.1094-61.324-1.9414-84.91-1.9414-9.3438 0-22.754 0.09375-36.258 0.37109v-0.09375h-0.09375l-163.07 0.003906c-8.6953 0-15.723 7.0312-15.723 15.723v0.18359c0 8.6953 7.0312 15.723 15.723 15.723h32.836c8.2305 0.55469 14.613 7.3984 14.613 15.633v0.18359c0 8.6953-7.0312 15.723-15.723 15.723l-17.02 0.007812c-8.6953 0-15.723 7.0312-15.723 15.723v0.18359c0 8.6953 7.0312 15.723 15.723 15.723h17.02c8.6953 0 15.723 7.0312 15.723 15.723v0.18359c0 8.6953-7.0312 15.723-15.723 15.723l-63.176 0.007812c-8.6953 0-15.723 7.0312-15.723 15.723v0.18359c0 8.6953 7.0312 15.723 15.723 15.723zm355.55-34.594h-78.992c0.55469-3.8867 1.1094-7.6758 1.6641-11.191 2.3125-16.188 4.9961-38.016 6.6602-54.203 8.2305 0 18.961 0.09375 29.785 0.27734 13.043 0.18359 24.418 6.1953 31.172 16.371 7.3086 11.008 13.875 22.477 19.609 34.316 3.0508 6.3828-2.5898 14.43-9.8984 14.43z" fill="#68b3b0"/>
 </g>
</svg>
