<?xml version="1.0" encoding="UTF-8"?>
<svg width="752pt" height="752pt" version="1.1" viewBox="0 0 752 752" xmlns="http://www.w3.org/2000/svg">
 <path d="m151.05 376c0 124.08 100.87 224.95 224.95 224.95 124.08 0.003906 224.95-100.87 224.95-224.95s-100.88-224.95-224.95-224.95-224.95 100.87-224.95 224.95zm237.74-125.97 81.93 81.93c3.3164 3.3164 5.2109 8.0508 5.2109 12.785 0 4.7344-1.8945 8.9961-5.2109 12.785-7.1055 7.1055-18.469 7.1055-25.102 0l-51.621-51.617v183.28c0 9.9453-8.0508 17.996-17.996 17.996s-17.996-8.0508-17.996-17.996v-183.28l-51.145 51.621c-7.1055 7.1055-18.469 7.1055-25.102 0-7.1055-7.1055-7.1055-18.469 0-25.102l81.93-81.93c3.3164-3.3164 8.0508-5.2109 12.785-5.2109 4.7383 0.003907 9 1.4258 12.316 4.7383z" fill="#68b3b0"/>
</svg>
