<?xml version="1.0" encoding="UTF-8"?>
<svg width="752pt" height="752pt" version="1.1" viewBox="0 0 752 752" xmlns="http://www.w3.org/2000/svg">
 <g fill="#68b3b0">
  <path d="m448.53 194.68-0.054688 0.21484 0.054688-0.023437z"/>
  <path d="m309.85 194.87 0.054688 0.023437-0.054688-0.21484z"/>
  <path d="m545.54 444.61c-6.875 0-13.578-2.5273-19.242-9.25-17.242-20.457 2.1875-60.188-26.695-105.88-20.07-31.754-45.051-50.84-69.914-61.562l18.797-73.027-47.906 22.902-21.387-50.848-21.383 50.852-47.902-22.898 17.992 67.473c-58.867 16.707-104.28 65.391-116.25 126.11l-46.652-7.5117 36.23 38.641-38.336 40.598 49.156-6.1055c15.633 73.703 81.738 126.85 160.78 130.61 5.0391 0.24219 9.9453 0.35547 14.758 0.35547 180.22-0.003906 201.53-163.93 201.53-163.93s-22.617 23.477-43.578 23.477zm-2 51.383c-34.184 49.648-86.656 74.82-155.96 74.82-4.5977 0-9.3398-0.11328-14.078-0.33984-40.867-1.9414-78.805-18.16-106.84-45.676-28.305-27.781-43.895-64.855-43.895-104.39 0-81.988 66.102-148.79 147.81-150l41.855 6.332c24.012 7.7656 52.531 24.59 75.133 60.348 14.199 22.461 15.055 43.469 15.812 62.008 0.6875 16.844 1.3398 32.762 12.027 45.445 7.8906 9.3633 18.309 14.312 30.129 14.312 6.7305 0 13.371-1.6445 19.562-4.1328-4.7617 12.449-11.668 26.926-21.551 41.273z"/>
  <path d="m376 515.84c-52.035 0-94.375-42.34-94.375-94.379 0-52.035 42.34-94.375 94.375-94.375s94.375 42.34 94.375 94.375c0 52.043-42.336 94.379-94.375 94.379zm0-182.77c-48.742 0-88.395 39.652-88.395 88.395 0.003906 48.742 39.656 88.391 88.395 88.391 48.742 0 88.395-39.652 88.395-88.395 0-48.742-39.652-88.391-88.395-88.391z"/>
  <path d="m387.8 421.46c0 6.5156-5.2812 11.797-11.797 11.797s-11.797-5.2812-11.797-11.797c0-6.5156 5.2812-11.797 11.797-11.797s11.797 5.2812 11.797 11.797"/>
 </g>
</svg>
