<?xml version="1.0" encoding="UTF-8"?>
<svg width="752pt" height="752pt" version="1.1" viewBox="0 0 752 752" xmlns="http://www.w3.org/2000/svg">
 <path d="m522.66 354.46h-17.602v-62.512c0-35.5-14.441-67.723-37.816-91.141l-0.058594-0.054688-0.054688-0.054687c-23.414-23.379-55.633-37.812-91.137-37.812-35.5 0-67.719 14.434-91.141 37.816l-0.050781 0.054688-0.058593 0.054687c-26.328 26.379-34.27 50.824-36.656 78.73-3.2422 37.844 54.098 43.273 58.016 5.4961 1.5703-15.117 6.3164-29.199 19.988-42.875l0.11719-0.10938c12.648-12.656 30.25-20.5 49.785-20.5 19.539 0 37.141 7.8438 49.789 20.5l0.11328 0.10938c12.648 12.648 20.492 30.25 20.492 49.789v62.512l-217.04-0.003906c-12.898 0-23.461 10.559-23.461 23.457v187.73c0 12.91 10.562 23.461 23.461 23.461h293.32c12.898 0 23.457-10.551 23.457-23.461v-187.73c0-12.902-10.559-23.461-23.457-23.461zm-127.57 144.59c0 26.262-38.172 26.262-38.172 0v-54.535c0-26.262 38.172-26.262 38.172 0z" fill="#68b3b0" fill-rule="evenodd"/>
</svg>
