<?xml version="1.0" encoding="UTF-8"?>
<svg width="752pt" height="752pt" version="1.1" viewBox="0 0 752 752" xmlns="http://www.w3.org/2000/svg">
 <path d="m524 509.2v29.598c0 11.777-4.6797 23.07-13.004 31.395-8.3281 8.3281-19.621 13.004-31.395 13.004h-207.19c-11.777 0-23.07-4.6758-31.395-13.004-8.3281-8.3242-13.004-19.617-13.004-31.395v-24.367c-0.50391-38.16 13.414-75.102 38.973-103.45 25.555-28.344 60.867-45.996 98.875-49.43 40.906-2.7617 81.125 11.547 111.09 39.527 29.969 27.977 47 67.121 47.051 108.12zm-148-162.79c23.551 0 46.137-9.3555 62.789-26.008 16.652-16.652 26.008-39.238 26.008-62.789s-9.3555-46.137-26.008-62.789c-16.652-16.652-39.238-26.008-62.789-26.008s-46.133 9.3555-62.789 26.008c-16.652 16.652-26.008 39.238-26.008 62.789 0.027344 23.543 9.3906 46.113 26.039 62.762 16.645 16.645 39.219 26.008 62.758 26.035z" fill="#68b3b0"/>
</svg>
